<svg version="1.1" id="Слой_1" xmlns="http://www.w3.org/2000/svg" xmlns:xlink="http://www.w3.org/1999/xlink" x="0" y="0" width="394.9" height="76.3" xml:space="preserve"><style>.st2{fill:#00bfff}.st4{fill:#fff}</style><path fill="#2553c3" d="M0 0h394.9v76.3H0z"/><defs><path id="SVGID_1_" d="M23.7 7.4h350v50h-350z"/></defs><clipPath id="SVGID_00000066507580059633360900000017873014764071381171_"><use xlink:href="#SVGID_1_" overflow="visible"/></clipPath><g clip-path="url(#SVGID_00000066507580059633360900000017873014764071381171_)"><path class="st2" d="M109.3 56.1c4.8.1 9.5-1.8 12.8-5.3 3.5-3.4 5.4-8 5.3-12.8.1-4.8-1.8-9.5-5.3-12.8-7.1-7-18.5-7-25.7 0-3.4 3.4-5.3 8-5.2 12.8-.1 4.8 1.8 9.5 5.2 12.8 3.4 3.5 8.1 5.4 12.9 5.3zm-8.8-27c4.9-4.7 12.7-4.7 17.6 0 2.4 2.4 3.7 5.6 3.6 8.9.1 3.4-1.2 6.6-3.6 9-4.9 4.7-12.7 4.7-17.6 0-2.4-2.4-3.7-5.6-3.6-9-.1-3.3 1.2-6.6 3.6-8.9zm97.4-9.2c-4.8-.1-9.5 1.8-12.8 5.3-3.4 3.4-5.4 8-5.3 12.8-.1 4.8 1.8 9.5 5.3 12.8 7.1 7 18.5 7 25.7 0 3.4-3.4 5.3-8 5.2-12.8.1-4.8-1.8-9.5-5.2-12.8-3.4-3.5-8.1-5.4-12.9-5.3zm8.8 27c-4.9 4.7-12.7 4.7-17.6 0-2.4-2.4-3.7-5.6-3.6-8.9-.1-3.3 1.2-6.6 3.6-8.9 4.9-4.7 12.7-4.7 17.6 0 2.4 2.4 3.7 5.6 3.6 8.9 0 3.3-1.2 6.6-3.6 8.9z"/><path d="M332.8 20h-7.1l-12.5 17.7 13.1 18.7h7.1l-12.7-18.6L332.8 20zM84.2 56.4L71.5 37.8l12.2-17.7h-7.1L64.1 37.7l13 18.7h7.1z" fill="#ff0053"/><path class="st4" d="M291.3 31.7l-9 13V20h-6v36.4h4.7l14.7-21.2h.1v-6.8l-.1-3.1-4.4 6.4z"/><path class="st2" d="M300.1 24.9v31.5h5.9V20h-5.9v4.9zm-43.5-.1v31.4h6V19.9h-6v4.9z"/><path class="st4" d="M233.1 31.6l11.7 16.7 7.4-10.6v-9.9l-7.4 10.7-13-18.6h-4.7v36.3h6V31.6zm-70.5 3.2h-13.5v5.7h13.5v15.7h6V19.9h-6v14.9z"/><path class="st2" d="M138.7 19.9v36.3h5.9V19.9h-5.9z"/><path class="st4" d="M353.6 20l-13.2 36.4h6.5l2.6-7.3h10.8l-1.9-5.6h-7l5.8-16.4 10.3 29.3h6.4L360.8 20h-7.2zm-314.8.1c-3.1-.1-6.1.7-8.8 2.2-2.6 1.4-4.8 3.6-6.3 6.1l5 2.9c.9-1.8 2.4-3.2 4.1-4.2 1.8-1 3.9-1.5 6-1.5 2.9-.1 5.8.9 8.1 2.7 2.2 1.8 3.6 4.4 4 7.2H34.2v5.4h22.7c.1-.9.2-1.8.2-2.7.1-4.8-1.7-9.5-5.1-12.9-3.6-3.5-8.3-5.4-13.2-5.2zm10.5 25.2c-.6 1.1-1.5 2-2.4 2.8-2.3 1.8-5.2 2.8-8.1 2.7-2.1 0-4.2-.5-6-1.5-1.7-.9-3.1-2.4-4.1-4.1l-5 2.9c1.5 2.6 3.7 4.7 6.3 6.1 2.7 1.5 5.7 2.3 8.8 2.2 7.4.2 14.2-4.2 16.9-11.2l-6.4.1c0-.1 0 0 0 0z"/></g></svg>