<svg xmlns="http://www.w3.org/2000/svg" fill="#fff" viewBox="0 0 756 300"><g id="surface1"><path d="M59.621 215.777c0-.574 0-1.152-.574-1.73-1.156-3.461-5.766-5.192-10.379-4.613-2.883.574-5.188 1.73-6.918 3.46-1.73 1.731-2.305 4.04-1.73 5.77 0 .578 0 1.152.578 1.73 1.152 3.461 5.765 5.192 10.375 4.618 5.191-1.157 9.226-5.196 8.648-9.235zm0 0"/><path d="M71.152 223.281c0-.578 0-1.156-.578-1.734-1.152-2.883-4.61-5.192-8.644-5.192 0 5.192-4.614 9.23-9.801 10.961v.579c1.152 3.46 5.762 5.19 10.375 4.617 5.766-.578 9.223-4.617 8.648-9.23zm6.34-11.539c0-.578 0-1.156-.574-1.734-1.152-3.461-5.766-5.192-10.379-4.613-2.883.578-5.187 1.73-6.918 3.46l-.574.579c1.152 1.152 1.726 1.73 2.305 3.46 0 .383.191.77.578 1.153 4.61 0 9.222 2.308 10.953 5.77 3.457-2.305 5.187-5.192 4.61-8.075zm122.793-110.777c-4.61-4.04-10.953-4.04-14.988-2.883 2.308-2.887 8.07-5.77 9.8-5.77 1.731 0 5.188 4.04 5.188 8.653zm0 0"/><path d="M214.7 83.656c-2.884-16.152-39.778-5.77-58.802-12.691-.578 4.617 5.762 12.691 11.528 15.578-9.801 8.652-19.024 27.117-20.754 49.039-1.73-21.922-10.953-39.809-20.754-49.039 5.766-2.887 12.11-10.387 11.531-15.578-18.449 6.922-55.922-4.04-58.804 12.691-.575 3.465 1.156 8.656 2.882 10.387.578-1.152 1.73-4.617 6.918-5.77 25.946-4.039 47.852 37.5 28.25 54.235-.578 0 0 .574 0 .574h58.801c.578 0 .578-.574 0-.574-19.598-16.735 2.309-58.274 28.25-54.235 5.188.579 6.918 4.618 6.918 5.77 3.457-1.73 4.613-6.922 4.035-10.387zm6.34-37.5c-.575-1.73 14.991-1.73 14.991 8.078 0 6.344-9.226 9.809-9.226 16.73 0 3.462 3.46 5.77 4.613 5.77-2.305-10.96 7.492-5.191 9.8-3.46-5.187-15 6.34-15 5.188-21.348-.578-4.617-10.953-3.461-14.988-5.77-6.344-4.039-14.414-20.77-19.602-4.039 9.801 9.23 4.036 22.5-8.07 22.5v2.309c14.988-1.153 20.176-12.117 17.293-20.77zM52.703 73.273c2.883-2.308 12.106-8.078 9.8 3.461 1.153 0 4.614-2.308 4.614-5.77 0-6.921-9.226-9.808-9.226-16.73 0-9.808 15.566-9.808 14.992-8.078C70 54.81 75.188 65.773 89.602 66.348v-2.305c-12.11 0-17.875-13.27-8.075-22.504-5.187-16.73-12.68 0-19.597 4.04-4.04 2.886-13.836 1.73-14.992 6.347-1.153 6.922 10.953 6.347 5.765 21.347zm0 0"/><path d="M93.637 100.965c4.61-4.04 10.953-4.04 14.988-2.883-2.309-2.887-8.07-5.77-9.8-5.77-1.731 0-5.188 4.04-5.188 8.653zm60.531-92.313L146.672 0l-6.918 8.652 6.918 9.235zm40.355 27.118l-5.191-6.344-5.187 6.344 5.187 6.347zm-84.746 0l-5.187-6.344-5.192 6.344 5.192 6.347zm0 0"/><path d="M95.363 66.348h18.45c15.566 0 23.058-9.809 24.789-18.461h16.14c2.309 8.652 9.227 18.46 24.79 18.46h18.448s3.461-4.613 4.036-6.921c2.882-8.078-.575-12.117-6.34-12.117l-6.918 6.925-6.918-6.925c-5.766 0-9.227 4.039-6.344 12.117.578 1.152 1.156 2.308 2.309 4.039-6.918-1.153-14.989-5.77-16.72-15.578 0 0 5.188-8.078 6.34-11.54 4.614-11.538-1.152-16.73-9.222-16.73L147.25 32.31l-10.953-12.692c-8.07 0-13.836 4.613-9.227 16.73 1.157 3.462 6.344 11.54 6.344 11.54-1.73 9.808-10.379 15-16.719 15.578.578-1.153 1.73-2.887 2.305-4.04 1.73-8.077-1.727-11.538-7.492-11.538l-6.918 6.922-6.918-6.922c-5.766 0-9.227 4.039-6.344 12.117.578 1.73 4.035 6.344 4.035 6.344zm193.703 60.004c-3.457 1.73-24.789 12.117-51.882 8.078 0-1.157.574-2.887.574-4.04 17.87-2.308 32.863-5.19 42.086-10.96 10.953-6.348 15.566-20.77 9.8-31.735 0 0-.578-.574-.578 0-2.882 3.461-21.328 24.235-50.73 30.578 0-1.73 0-2.882-.578-4.613 14.414-8.078 28.25-17.887 34.59-26.539 9.8-13.273 9.226-30.004-.575-38.656h-1.152c-2.883 5.191-31.133 51.926-62.262 72.117-.578 0-.578.578-1.156.578-1.152.578-1.152 1.73 0 2.309 3.461 3.46 5.766 8.074 5.766 13.27 0 8.652-6.918 16.152-15.563 17.882-4.613 1.156-10.957.578-17.297-1.73 0 0-.578 0-.578.578v28.27c0 .577.578.577.578 0 4.036-10.384 14.989-12.692 20.176-12.692 1.73 10.96 5.192 20.191 9.227 24.808 6.918 8.079 17.87 8.079 22.48 2.31v-.58c-2.879-1.73-19.023-11.538-21.906-28.269l3.46-1.73c5.188 8.652 12.684 16.73 19.024 19.613 10.38 5.196 19.602 2.309 23.637-4.613 0 0 0-.578-.578-.578-6.34-.578-25.363-6.348-34.012-20.192l2.883-2.886c8.648 6.925 20.754 12.695 29.402 13.847 10.375 1.153 21.907-1.73 21.907-14.425 0 0 0-.575-.579-.575-3.457 0-27.671 1.153-44.964-8.656l1.726-3.46s25.946 6.347 38.051 4.038c12.105-2.308 19.023-11.539 17.871-23.078 1.73 1.73 1.152 1.73 1.152 1.73zM60.2 145.39l1.73 3.462c-17.297 10.386-40.934 9.234-44.97 8.656 0 0-.573 0-.573.578 0 12.113 12.105 15.574 21.906 14.422 8.645-1.153 20.754-6.922 29.398-13.848.579 1.156 1.73 1.73 2.883 2.887-8.07 13.844-27.672 19.613-34.011 20.191-.579 0-.579.578-.579.578 4.036 7.5 13.262 9.809 23.637 4.614 6.344-2.883 13.836-10.961 19.024-19.614l3.46 1.73c-3.46 16.731-19.023 26.54-21.906 28.27v.579c4.61 5.77 15.567 5.77 22.485-2.31 4.035-5.19 7.492-13.847 9.222-24.808 5.188 0 16.14 2.309 20.176 12.692 0 .578.578.578.578 0v-28.27c0-.578-.578-.578-.578-.578-6.34 2.309-12.684 2.309-17.293 1.73-8.648-1.73-15.566-9.23-15.566-17.882 0-5.196 2.304-9.809 5.765-13.27.575-.578.575-1.73 0-2.308-.578 0-.578-.579-1.152-.579-29.98-21.347-58.227-68.078-61.11-73.273 0 0-.578-.574-.578 0-9.222 8.656-10.375 25.387-.574 38.656 6.34 8.657 20.754 18.465 34.59 26.54 0 1.73-.578 2.886-.578 4.617-29.402-6.348-47.848-27.118-50.73-30.579h-.579c-5.187 10.961-.574 25.387 9.801 31.73 9.227 5.196 24.215 8.657 42.086 10.966 0 1.152.574 2.883.574 4.039-27.093 4.035-48.425-6.348-51.883-8.078 0 0-.578 0-.578.574-1.152 11.539 5.766 20.773 17.871 23.078 12.684 1.156 38.051-5.191 38.051-5.191zm99.155 38.079c3.461-1.153 8.649 0 8.649 4.617 0 1.152 1.73 1.152 1.73 0 1.153-7.5-4.039-9.809-9.226-8.656l-1.73-6.922c-.575-1.73-1.153-5.192 1.156-5.192 1.152 0 .574 2.883.574 4.614 0 1.156.578 1.73 1.152 1.73.578 0 1.156-.574 1.73-1.152 2.883-3.461 3.462-8.653 0-11.54-2.882-2.308-9.8-.577-12.105 2.31-.578-1.157-1.73-2.887-2.305-4.04-.578-.578-.578-1.152 0-2.308.575-.578 1.727-1.73 1.727-2.883 0-.578-.574-2.309-2.305-2.309-1.73 0-3.46 1.153-3.46 3.461 0 .578 0 1.153.578 1.73h-5.188l19.023 53.657c5.188-2.883 9.223-6.922 9.223-11.54 0-4.038-5.762-2.882-8.644.579-1.157-5.191-1.73-9.809-2.309-14.426 0-.574.578-1.152 1.73-1.73zm-25.367-36.922c-.574-1.156-2.304-.578-1.726.574l4.035 11.54c-3.461.577-8.649 3.46-8.649 6.925 0 4.613 7.497 7.5 12.106 6.922 0 1.152 0 1.73.578 2.883-1.73 0-4.613.578-5.766 1.734-2.304-2.309-6.34-2.887-8.07-1.734-1.73 1.156-1.73 4.039 0 6.347 1.152 1.73 1.73 3.461.574 5.77 5.192 0 3.461-7.5 5.766-7.5 0 1.152 0 2.887.578 4.617.574 1.152.574 2.305-.578 3.46-1.73 2.884-4.61 9.231-4.035 15.58-1.73 0-2.883-.58-2.305-2.888 0-1.152-.578-1.73-1.152-.574-.578 1.152-1.153 3.461-1.153 4.613 0 5.192 6.34 6.348 8.645 5.192 6.918 6.926 20.18 5.195 24.215 2.887zm-2.304 55.387c-.579-2.887 3.46-7.5 8.07-12.118-1.152 2.883-.574 8.079 1.73 10.387-4.035-.578-8.07 0-9.8 1.73zm-82.438 42.691c2.305.578 4.61.578 6.918.578 10.953 0 20.176-5.191 23.059-12.117-.578-3.461-1.153-6.344-1.153-9.805 0-.578 0-2.308-.578-3.465-1.152 1.157-2.305 2.309-3.457 2.887v.578c.574 5.77-4.035 11.54-10.953 12.692h-2.309c-5.187 0-9.8-2.887-10.953-6.922 0-.387-.191-.77-.574-1.156h-.578c-2.305 0-4.035-.579-5.766-1.153.578 4.04 1.73 8.653 3.461 12.113 1.153 2.31 1.73 4.04 2.883 5.77zm37.473 5.77c-2.309 6.347-9.801 11.539-18.45 12.117 8.649 5.191 17.872 8.078 23.06 7.5 0-1.73 2.308-8.078 4.034-10.383-3.457-2.887-6.34-5.77-8.644-9.234zm0 0"/><path d="M243.523 219.242c-2.882-1.73-6.34-.578-8.07 2.883-.578 1.73-2.305 2.309-4.035 1.73l3.457-6.921c2.309 0 4.035-1.157 5.191-3.461 1.727-2.887.575-6.348-2.308-8.078-2.883-1.73-6.34-.579-8.07 2.308-1.153 2.305-.575 4.613.578 6.344l-3.461 7.5c-1.153-1.152-1.153-2.883-.575-4.035 1.727-2.887.575-6.926-2.308-8.078l-19.024-10.387-1.152.578c-1.152 2.883-.578 5.77 1.73 7.5-.578 2.309 0 5.191 2.305 6.922-.578 2.887.578 5.77 2.883 7.5l3.457 1.734h-.574c-1.73.574-2.309 1.153-3.461 2.883-1.727 2.887.578 5.77 4.035 9.23-1.152 0-1.726 0-2.883.579-5.761.578-21.328-2.887-19.597-5.192 16.718-24.808 4.035-39.234-11.532-38.082v16.735c0 5.191-4.613 9.808-9.8 9.808h-10.954c-7.496 0-12.683 8.074-12.683 8.074s-5.188-8.074-12.684-8.074h-10.953c-5.762 0-9.8-4.039-9.8-9.808v-16.735c-15.563-.574-28.247 13.848-11.528 38.082 1.152 2.305-12.684 5.77-20.754 5.192-4.035 6.922-13.262 12.117-24.789 12.117-1.73 0-2.883 0-4.613-.578 3.46 4.613 7.496 8.652 12.105 11.539h1.73c10.38 0 18.45-5.77 19.024-12.692 0-.578-.574-.578-.574-1.156 6.34-4.039 17.293-6.922 25.941-6.922 1.73 0 2.305-1.73 1.73-2.886-4.612-10.961 5.188-18.461 14.99-12.114 4.034 2.883 8.648 8.074 11.53 17.305-16.144 4.039-35.746 15.004-39.78 27.117-1.727 4.617 3.46 10.965 9.8 12.117h.578c3.457-17.886 21.906-31.156 31.707-33.46.383.765.574 1.535.574 2.304-10.375 5.195-20.754 16.156-23.633 28.848-1.156 5.77 5.188 10.965 10.375 12.695 0 0 .579 0 .579-.578 1.152-16.156 8.07-30 14.41-36.348 0 1.153.578 2.309.578 3.461 0 0-6.344 18.461-6.344 31.735 0 6.343 9.227 10.382 10.379 10.96 1.73-.578 10.953-5.19 10.953-10.96 0-13.274-6.344-31.735-6.344-31.735 0-1.152 0-2.308.578-3.46 6.34 6.347 13.258 20.19 14.415 36.347 0 0 0 .578.574.578 5.187-1.73 11.531-6.926 10.379-12.695-2.883-12.692-13.262-23.653-23.637-28.848.383-.77.574-1.539.574-2.305 9.801 2.305 28.25 15.575 31.707 33.461h.578c6.34-1.152 11.532-7.5 9.801-12.117-4.035-12.113-24.215-23.078-39.777-27.117 3.457-9.23 7.492-14.422 11.527-17.305 9.8-6.347 19.027 1.73 14.992 12.114-.578 1.73 0 2.886 1.727 2.886 6.918 0 14.988 1.73 21.332 4.614 0 3.464 1.73 6.925 4.61 9.23-2.88.578-5.188 1.734-6.919 4.04-2.304 2.886-2.304 7.5-1.152 13.269l-2.883 9.234c0 .574 0 1.152.578 1.152s1.153 0 1.73-.578l5.188-8.074c5.766-2.309 9.223-5.195 10.375-8.656 1.156-2.883.578-5.192-.574-8.078 5.188 1.73 10.375 0 12.684-4.04 1.726-2.882 1.152-6.343-1.153-9.23 4.61.578 8.07 1.156 9.223-1.73.574-1.153.574-2.883.574-4.04v-.574l3.461 1.73c2.305 1.153 5.766.575 7.496-1.73 2.305.575 5.188 0 6.34-2.308 2.883 1.152 5.766-.578 6.918-2.887l.578-1.152zm-38.625 45.578c0-2.308.579-5.191 1.73-6.347.575-.578 1.731-1.153 2.306-1.73zm8.649-2.308c-.578 1.152-2.309 3.46-4.035 4.617l4.035-8.078zm6.34-27.117c0-.575-.575-.575 0 0-2.305-2.31-6.918-6.344-6.34-7.5 0-.579.574-.579 1.152-.579 2.305-.574 5.766.579 8.649 2.309zm14.414 3.46c-.578 1.157-6.344 0-8.649-.574h-.578l2.883-6.347c2.309 1.73 5.766 4.039 6.344 5.77zM354.672 116.14H351.5l-.805-10.788c-.347-4.211-.52-7.442-.578-9.75l-5.129 17.77h-3.058l-5.418-17.829c0 2.883-.172 6.23-.461 9.98l-.805 10.5h-3.113l1.957-23.828h4.441l5.016 17.368 4.785-17.368h4.438l1.96 23.828zm19.601 0h-3.171v-8.25c0-1.386 0-2.71.117-3.925.113-1.27.172-2.074.23-2.48l-7.668 14.656h-3.746V97.91h3.168v8.25c0 1.21 0 2.48-.113 3.804-.117 1.328-.176 2.137-.23 2.539l7.55-14.54h3.863V116.2zm17.293 0v-8.019h-7.55v8.02h-3.172V97.91h3.172v7.671h7.55V97.91h3.172v18.23zm23.984 0h-3.171v-8.25c0-1.386 0-2.71.117-3.925.113-1.27.172-2.074.23-2.48l-7.667 14.656h-3.747V97.91h3.168v8.25c0 1.21 0 2.48-.113 3.804-.117 1.328-.176 2.137-.23 2.539l7.55-14.54h3.864V116.2zm16.141-18.175c.922.289 1.79.808 2.594 1.5l-1.496 2.02c-.637-.462-1.27-.81-1.906-1.04a5.687 5.687 0 00-2.016-.343c-1.5 0-2.652.574-3.46 1.789-.805 1.152-1.208 2.941-1.208 5.25 0 2.308.403 3.98 1.207 5.074.809 1.097 1.961 1.676 3.461 1.676.692 0 1.383-.118 1.961-.348a13.71 13.71 0 002.016-1.04l1.441 2.079c-1.672 1.328-3.515 2.02-5.59 2.02-2.48 0-4.382-.809-5.824-2.48-1.441-1.673-2.133-3.981-2.133-6.868 0-1.961.348-3.633.98-5.078.634-1.442 1.555-2.594 2.766-3.403 1.211-.808 2.594-1.21 4.211-1.21 1.094 0 2.075.171 2.996.46zm19.254-.055l-.402 2.594h-5.824v15.637h-3.168v-15.637h-5.996V97.91h15.449zm16.145 10.211h-11.645c.114 2.02.633 3.461 1.496 4.442.868.921 2.02 1.44 3.403 1.44.863 0 1.672-.112 2.422-.401.75-.29 1.5-.637 2.304-1.211l1.383 1.902c-1.957 1.5-4.035 2.309-6.34 2.309-2.535 0-4.496-.809-5.937-2.48-1.442-1.673-2.133-3.923-2.133-6.868 0-1.902.289-3.578.922-5.02.633-1.441 1.5-2.593 2.652-3.46 1.153-.864 2.477-1.27 4.035-1.27 2.422 0 4.266.808 5.59 2.367 1.27 1.613 1.961 3.805 1.961 6.633 0 .52 0 1.098-.058 1.617zm-3.055-2.539c0-1.789-.348-3.172-1.098-4.098-.75-.921-1.785-1.441-3.226-1.441-2.594 0-4.035 1.902-4.266 5.77h8.532v-.231zm21.675-5.598c1.095 1.676 1.614 3.98 1.614 7.04 0 2.886-.633 5.19-1.844 6.925-1.27 1.73-3 2.653-5.304 2.653-2.02 0-3.633-.692-4.785-2.079v8.657l-3.172.402V97.965h2.71l.231 2.48a7.724 7.724 0 012.422-2.132c.922-.52 1.961-.75 2.996-.75 2.305 0 4.035.808 5.133 2.48zm-1.788 7.04c0-4.672-1.383-6.981-4.094-6.981-.922 0-1.726.289-2.476.809s-1.387 1.21-1.961 2.02v8.882c.46.695 1.039 1.27 1.73 1.676.692.402 1.442.574 2.305.574 2.996 0 4.496-2.305 4.496-6.98zm18.449-9.059c.922.289 1.785.808 2.594 1.5l-1.5 2.02a7.77 7.77 0 00-1.902-1.04 5.702 5.702 0 00-2.016-.343c-1.5 0-2.652.574-3.461 1.789-.805 1.152-1.211 2.941-1.211 5.25 0 2.308.406 3.98 1.21 5.074.81 1.097 1.962 1.676 3.462 1.676.691 0 1.383-.118 1.957-.348.578-.23 1.27-.578 2.02-1.04l1.44 2.079c-1.671 1.328-3.515 2.02-5.593 2.02-2.476 0-4.379-.809-5.82-2.48-1.442-1.673-2.133-3.981-2.133-6.868 0-1.961.344-3.633.98-5.078.633-1.442 1.555-2.594 2.766-3.403 1.211-.808 2.594-1.21 4.207-1.21a9.88 9.88 0 013 .46zm19.254-.055l-.402 2.594h-5.825v15.637h-3.171v-15.637h-5.993V97.91h15.45zm17.527 12.633c0 1.906-.695 3.348-2.078 4.27-1.383.921-3.226 1.386-5.59 1.386h-6.574V98.195a28.34 28.34 0 015.996-.632c2.25 0 4.035.402 5.364 1.269 1.324.863 1.957 2.078 1.957 3.691 0 1.04-.286 1.907-.922 2.54-.633.632-1.555 1.097-2.766 1.269 3.113.29 4.613 1.73 4.613 4.27zm-11.07-10.383v5.133h3.402c1.094 0 1.957-.23 2.536-.633.578-.406.921-1.097.921-2.137 0-.921-.343-1.613-.98-2.02-.691-.401-1.672-.632-3.055-.632-.98 0-1.902.055-2.824.23zm6.57 12.805c.75-.461 1.157-1.266 1.157-2.48 0-.981-.348-1.731-.98-2.133-.638-.403-1.731-.637-3.29-.637h-3.457v6h3.402c1.383 0 2.422-.23 3.168-.692zm22.426-12.922c1.442 1.73 2.133 4.039 2.133 6.98 0 1.907-.344 3.579-.977 5.02-.636 1.441-1.558 2.539-2.828 3.348-1.21.808-2.652 1.21-4.379 1.21-2.539 0-4.554-.867-5.996-2.538-1.441-1.672-2.133-4.04-2.133-6.981 0-1.902.344-3.578.98-5.02.634-1.44 1.556-2.539 2.825-3.347 1.211-.805 2.711-1.211 4.383-1.211 2.535 0 4.55.867 5.992 2.539zm-10.723 6.98c0 4.618 1.56 6.98 4.73 6.98 3.169 0 4.727-2.304 4.727-6.98 0-4.671-1.558-6.98-4.671-6.98-3.114 0-4.727 2.309-4.727 6.98zM342.738 141.41c1.27 1.617 1.961 3.922 1.961 7.04 0 3.116-.691 5.366-2.02 7.097-1.324 1.73-3.343 2.539-5.937 2.539-2.246 0-4.207-.695-5.765-2.02l1.5-2.02c.691.52 1.328.864 1.96 1.095.633.23 1.383.347 2.247.347 1.328 0 2.421-.46 3.23-1.441.809-.98 1.27-2.48 1.383-4.5h-7.438v-2.426h7.438c-.113-1.902-.52-3.289-1.211-4.21-.691-.923-1.613-1.384-2.883-1.384-.805 0-1.555.114-2.246.344a8.832 8.832 0 00-2.078 1.04l-1.442-1.962c.868-.691 1.79-1.156 2.711-1.5.98-.347 2.02-.46 3.172-.46 2.305 0 4.094.804 5.36 2.363zm20.812-1.96l-5.534 8.421 6.168 9.809h-3.747l-5.074-8.422h-2.304v8.422h-3.172v-18.23h3.172v7.327h2.363l4.613-7.328zm16.833 2.132c1.441 1.73 2.133 4.04 2.133 6.98 0 1.907-.344 3.579-.98 5.024-.634 1.441-1.556 2.535-2.825 3.344-1.266.808-2.652 1.21-4.379 1.21-2.539 0-4.555-.863-5.996-2.538-1.441-1.672-2.133-4.036-2.133-6.98 0-1.903.344-3.575.98-5.02.633-1.442 1.555-2.54 2.825-3.344 1.21-.809 2.707-1.215 4.379-1.215 2.539 0 4.554.867 5.996 2.539zm-10.723 6.98c0 4.618 1.559 6.985 4.727 6.985 3.172 0 4.73-2.309 4.73-6.984 0-4.672-1.558-6.981-4.672-6.981-3.113 0-4.726 2.309-4.726 6.98zm28.824 9.118v-8.02h-7.55v8.02h-3.172v-18.23h3.172v7.671h7.55v-7.672h3.172v18.23zm22.602-16.098c1.441 1.73 2.133 4.04 2.133 6.98 0 1.907-.348 3.579-.98 5.024-.637 1.441-1.56 2.535-2.825 3.344-1.27.808-2.652 1.21-4.383 1.21-2.535 0-4.554-.863-5.996-2.538-1.441-1.672-2.133-4.036-2.133-6.98 0-1.903.348-3.575.98-5.02.634-1.442 1.555-2.54 2.825-3.344 1.211-.809 2.711-1.215 4.383-1.215 2.535 0 4.555.867 5.996 2.539zm-10.723 6.98c0 4.618 1.555 6.985 4.727 6.985 3.168 0 4.726-2.309 4.726-6.984 0-4.672-1.558-6.981-4.671-6.981-3.11 0-4.727 2.309-4.727 6.98zm35.973 9.118h-3.113l-.809-8.598a24.42 24.42 0 01-.172-3v-3.52l-4.152 13.157h-2.996l-3.864-13.098c0 3.059 0 5.191-.113 6.461l-.637 8.656h-3.054l1.613-18.23h4.094l3.574 13.039 3.922-13.04h4.207l1.672 18.231zm19.543 0h-3.172v-8.25c0-1.383 0-2.711.117-3.922.113-1.27.172-2.078.23-2.48l-7.667 14.652h-3.75v-18.23h3.172v8.25c0 1.21 0 2.48-.114 3.808-.117 1.324-.175 2.133-.23 2.539l7.55-14.54h3.864v18.231zm19.081-18.23v18.23h-3.17v-7.614c-.692.633-1.5 1.094-2.481 1.442a8.887 8.887 0 01-2.997.52c-1.73 0-3.054-.462-3.921-1.387-.864-.922-1.325-2.25-1.325-3.98v-7.212h3.172v6.863c0 1.157.23 2.02.692 2.54.46.52 1.21.808 2.191.808.805 0 1.672-.172 2.535-.578a5.535 5.535 0 002.074-1.441v-8.192zm20.235 10.21h-11.644c.113 2.02.633 3.461 1.496 4.442.867.925 2.02 1.445 3.402 1.445.867 0 1.672-.117 2.422-.406.75-.23 1.5-.633 2.305-1.211l1.387 1.906c-1.961 1.5-4.036 2.305-6.344 2.305-2.535 0-4.496-.805-5.938-2.48-1.441-1.673-2.133-3.923-2.133-6.864 0-1.906.29-3.578.922-5.02.633-1.445 1.5-2.597 2.653-3.464 1.152-.864 2.48-1.27 4.035-1.27 2.422 0 4.265.809 5.594 2.367 1.265 1.617 1.957 3.809 1.957 6.637 0 .516 0 1.094-.055 1.613zm-3.054-2.539c0-1.789-.348-3.172-1.098-4.094-.75-.925-1.785-1.445-3.227-1.445-2.593 0-4.035 1.906-4.265 5.77h8.531v-.23zm17.871-7.613c.922.285 1.785.804 2.593 1.5l-1.5 2.02a7.574 7.574 0 00-1.902-1.04 5.687 5.687 0 00-2.015-.347c-1.5 0-2.653.578-3.461 1.789-.805 1.152-1.211 2.941-1.211 5.25 0 2.308.406 3.98 1.21 5.078.81 1.094 1.962 1.672 3.462 1.672.69 0 1.382-.114 1.957-.344.578-.234 1.27-.578 2.02-1.04l1.44 2.075c-1.671 1.328-3.515 2.02-5.593 2.02-2.477 0-4.38-.805-5.82-2.48-1.442-1.673-2.133-3.981-2.133-6.864 0-1.965.343-3.637.98-5.078.633-1.442 1.555-2.598 2.766-3.406 1.21-.805 2.593-1.211 4.207-1.211a10 10 0 013 .46zm20.578-.058l-5.531 8.421 6.168 9.809h-3.747l-5.074-8.422h-2.308v8.422h-3.168v-18.23h3.168v7.327h2.367l4.61-7.328zm16.777 2.132c1.442 1.73 2.133 4.04 2.133 6.98 0 1.907-.344 3.579-.98 5.024-.633 1.441-1.555 2.535-2.825 3.344-1.27.808-2.652 1.21-4.379 1.21-2.539 0-4.554-.863-5.996-2.538-1.441-1.672-2.133-4.036-2.133-6.98 0-1.903.344-3.575.981-5.02.633-1.442 1.555-2.54 2.824-3.344 1.211-.809 2.707-1.215 4.38-1.215 2.538 0 4.554.867 5.995 2.539zm-10.722 6.98c0 4.618 1.558 6.985 4.726 6.985 3.172 0 4.727-2.309 4.727-6.984 0-4.672-1.555-6.981-4.668-6.981-3.114 0-4.727 2.309-4.727 6.98zm21.273 9.118h-3.172v-18.23h11.36l-.407 2.652h-7.781v15.636zm23.637-16.098c1.441 1.73 2.133 4.04 2.133 6.98 0 1.907-.348 3.579-.981 5.024-.633 1.441-1.555 2.535-2.824 3.344-1.27.808-2.653 1.21-4.383 1.21-2.535 0-4.555-.863-5.996-2.538-1.442-1.672-2.133-4.036-2.133-6.98 0-1.903.348-3.575.98-5.02.633-1.442 1.56-2.54 2.825-3.344 1.21-.809 2.71-1.215 4.383-1.215 2.535 0 4.554.867 5.996 2.539zm-10.723 6.98c0 4.618 1.555 6.985 4.727 6.985 3.171 0 4.726-2.309 4.726-6.984 0-4.672-1.555-6.981-4.668-6.981-3.113 0-4.726 2.309-4.726 6.98zm40.758-7.035c1.094 1.672 1.613 3.98 1.613 7.036 0 2.886-.633 5.195-1.844 6.925-1.27 1.73-3 2.653-5.304 2.653-2.016 0-3.633-.692-4.785-2.075v8.653l-3.172.402v-25.613h2.71l.231 2.48a7.689 7.689 0 012.422-2.136c.922-.52 1.96-.75 2.996-.75 2.309 0 4.035.808 5.133 2.48zm-1.79 7.036c0-4.672-1.382-6.981-4.09-6.981-.925 0-1.73.29-2.48.809-.75.52-1.382 1.21-1.96 2.02v8.886c.46.691 1.039 1.27 1.73 1.672.691.402 1.441.578 2.305.578 3 0 4.496-2.309 4.496-6.984zm21.16 6.523c.231.344.634.633 1.153.805l-.75 2.195c-.922-.117-1.73-.406-2.304-.809-.579-.406-.98-1.039-1.27-1.96-1.21 1.843-3.055 2.71-5.418 2.71-1.789 0-3.23-.52-4.266-1.5-1.039-1.039-1.558-2.367-1.558-3.98 0-1.965.691-3.406 2.074-4.445 1.387-1.04 3.344-1.555 5.938-1.555h2.828v-1.328c0-1.27-.29-2.192-.926-2.77-.633-.578-1.555-.808-2.879-.808-1.328 0-3 .347-4.902.98l-.805-2.309c2.246-.804 4.379-1.269 6.281-1.269 2.133 0 3.746.52 4.785 1.559 1.04 1.039 1.614 2.539 1.614 4.5v8.367c0 .75.117 1.27.406 1.617zm-3.573-2.195v-4.211h-2.364c-3.343 0-5.074 1.27-5.074 3.75 0 1.097.29 1.906.805 2.48.52.578 1.328.809 2.367.809 1.844 0 3.227-.922 4.266-2.828zm17.465-13.328c.98.406 1.789.925 2.421 1.675.637.75.922 1.614.922 2.653s-.285 1.847-.863 2.48c-.578.637-1.5 1.156-2.766 1.5 1.496.23 2.649.75 3.457 1.441.809.696 1.153 1.676 1.153 3.004 0 1.903-.75 3.344-2.192 4.325-1.441.98-3.343 1.445-5.59 1.445-2.765 0-5.074-.75-7.035-2.309l1.672-1.96c.809.574 1.617.98 2.422 1.269.809.285 1.79.402 2.824.402 3 0 4.442-1.097 4.442-3.23 0-1.04-.407-1.79-1.27-2.25-.863-.406-2.015-.637-3.515-.637h-2.422l.23-2.48h1.844c1.27 0 2.309-.23 3.113-.692.809-.46 1.153-1.152 1.153-2.137 0-.921-.344-1.554-.977-1.96-.695-.403-1.559-.575-2.652-.575-.926 0-1.79.114-2.48.344-.75.23-1.442.637-2.192 1.098l-1.5-1.906a9.887 9.887 0 013-1.555c1.039-.348 2.246-.52 3.574-.52 1.152 0 2.25.172 3.227.575zm23.812 12.519c0 1.906-.695 3.348-2.078 4.27-1.383.925-3.227 1.386-5.59 1.386h-6.574v-18a28.358 28.358 0 015.996-.636c2.25 0 4.035.406 5.363 1.27 1.324.866 1.957 2.077 1.957 3.69 0 1.04-.285 1.907-.922 2.54-.632.636-1.554 1.097-2.765 1.27 3.113.288 4.613 1.73 4.613 4.269zm-11.07-10.383v5.133h3.402c1.094 0 1.957-.23 2.535-.633.578-.402.922-1.097.922-2.137 0-.921-.344-1.613-.98-2.015-.692-.406-1.672-.637-3.055-.637-.98 0-1.902.059-2.824.23zm6.57 12.809c.75-.461 1.156-1.27 1.156-2.48 0-.981-.347-1.731-.98-2.137-.637-.403-1.73-.633-3.29-.633h-3.456v6h3.402c1.383 0 2.422-.23 3.168-.692zm23.926 3.172h-3.172v-8.25c0-1.383 0-2.711.117-3.922.113-1.27.172-2.078.23-2.48l-7.667 14.652h-3.746v-18.23h3.171v8.25c0 1.21 0 2.48-.117 3.808-.117 1.324-.172 2.133-.23 2.539l7.55-14.54h3.864v18.231zM717 139.45l-.402 2.597h-5.825v15.633h-3.171v-15.633h-5.997v-2.598h15.454zm17.469 18.23h-3.172v-8.25c0-1.383 0-2.711.113-3.922.117-1.27.176-2.078.23-2.48l-7.663 14.652h-3.75v-18.23h3.171v8.25c0 1.21 0 2.48-.117 3.808-.113 1.324-.172 2.133-.23 2.539l7.554-14.54h3.864v18.231zm19.023-18.23v18.23h-3.172v-6.98h-3.976l-3.864 6.98h-3.574l4.383-7.73c-2.133-1.04-3.23-2.653-3.23-4.962 0-1.789.632-3.175 1.96-4.156 1.27-.98 3.114-1.441 5.418-1.441h6.055zm-3.172 8.827v-6.347h-2.941c-1.324 0-2.305.23-2.938.75-.636.52-.98 1.27-.98 2.367 0 1.152.289 1.96.922 2.48s1.613.75 2.941.75zm-403.89 28.961c1.613 1.211 2.422 3.059 2.422 5.54 0 2.597-.868 4.558-2.54 5.827-1.671 1.27-3.917 1.903-6.687 1.903h-2.996v8.77h-3.285v-23.829h6.281c2.941 0 5.246.637 6.86 1.848zm-2.594 9.52c.976-.75 1.496-2.078 1.496-3.98 0-1.731-.52-2.942-1.496-3.692-.98-.75-2.422-1.156-4.324-1.156h-2.942v9.925h2.883c1.902 0 3.344-.347 4.383-1.097zm21.214-3.633c1.442 1.73 2.134 4.04 2.134 6.98 0 1.903-.348 3.579-.98 5.02-.638 1.441-1.56 2.54-2.825 3.344-1.211.808-2.652 1.215-4.383 1.215-2.535 0-4.555-.868-5.996-2.54-1.441-1.675-2.133-4.039-2.133-6.98 0-1.906.348-3.578.98-5.02.633-1.445 1.555-2.539 2.825-3.347 1.27-.809 2.71-1.211 4.383-1.211 2.535 0 4.554.863 5.996 2.539zm-10.722 6.98c0 4.614 1.555 6.98 4.727 6.98 3.168 0 4.726-2.308 4.726-6.98 0-4.675-1.558-6.98-4.672-6.98-3.109 0-4.726 2.305-4.726 6.98zm27.727-9.058c.922.289 1.789.808 2.593 1.5l-1.496 2.02a7.794 7.794 0 00-1.902-1.04 5.724 5.724 0 00-2.02-.347c-1.5 0-2.652.578-3.457 1.789-.808 1.156-1.21 2.945-1.21 5.25 0 2.308.402 4.039 1.21 5.078.805 1.098 1.957 1.672 3.457 1.672.692 0 1.383-.114 1.961-.344a13.35 13.35 0 002.016-1.04l1.441 2.08c-1.671 1.323-3.515 2.019-5.59 2.019-2.48 0-4.44-.809-5.824-2.48-1.382-1.677-2.132-3.985-2.132-6.868 0-1.961.347-3.637.98-5.078.633-1.442 1.559-2.594 2.766-3.403 1.21-.808 2.597-1.21 4.27-1.21a9.87 9.87 0 012.995.46zm15.855 0c.922.289 1.785.808 2.594 1.5l-1.5 2.02a7.7 7.7 0 00-1.902-1.04 5.703 5.703 0 00-2.016-.347c-1.5 0-2.652.578-3.461 1.789-.805 1.156-1.21 2.945-1.21 5.25 0 2.308.405 4.039 1.21 5.078.809 1.098 1.96 1.672 3.46 1.672.692 0 1.384-.114 1.958-.344.578-.23 1.27-.578 2.02-1.04l1.44 2.08c-1.671 1.323-3.515 2.019-5.593 2.019-2.476 0-4.437-.809-5.82-2.48-1.383-1.677-2.133-3.985-2.133-6.868 0-1.961.344-3.637.98-5.078.633-1.442 1.555-2.594 2.766-3.403 1.211-.808 2.594-1.21 4.266-1.21 1.097 0 2.074.171 3 .46zm21.098 18.172h-3.168v-8.25c0-1.383 0-2.711.113-3.922.117-1.27.172-2.078.23-2.48l-7.667 14.652h-3.746v-18.23h3.171v8.25c0 1.21 0 2.48-.117 3.808-.113 1.328-.172 2.137-.23 2.48l7.55-14.539h3.864zm20.754 0h-3.168v-8.25c0-1.383 0-2.711.113-3.922.117-1.27.172-2.078.23-2.48l-7.667 14.652h-3.747v-18.23h3.172v8.25c0 1.21 0 2.48-.117 3.808-.113 1.328-.172 2.137-.23 2.48l7.55-14.539h3.864zm-10.723-23.364c-.98-.75-1.496-1.73-1.672-2.945l2.133-.46c.23.75.578 1.269 1.098 1.616.52.344 1.152.461 1.96.461.805 0 1.497-.172 2.016-.52.52-.347.922-.866 1.153-1.558l2.132.461c-.113 1.27-.691 2.25-1.671 2.945-.981.692-2.192 1.094-3.63 1.094-1.44 0-2.597-.344-3.578-1.094zm26.867 5.192c.922.289 1.785.808 2.594 1.5l-1.5 2.02a7.77 7.77 0 00-1.902-1.04 5.709 5.709 0 00-2.02-.347c-1.496 0-2.648.578-3.457 1.789-.808 1.156-1.21 2.945-1.21 5.25 0 2.308.401 4.039 1.21 5.078.809 1.098 1.961 1.672 3.457 1.672.695 0 1.387-.114 1.961-.344.578-.23 1.27-.578 2.02-1.04l1.441 2.08c-1.672 1.323-3.52 2.019-5.594 2.019-2.476 0-4.379-.809-5.82-2.48-1.441-1.677-2.133-3.985-2.133-6.868 0-1.961.344-3.637.977-5.078.636-1.442 1.558-2.594 2.77-3.403 1.21-.808 2.593-1.21 4.206-1.21 1.098 0 2.074.171 3 .46zm20.637-.059l-5.535 8.426 6.168 9.805h-3.746l-5.075-8.422h-2.304v8.422h-3.172v-18.23h3.172v7.327h2.363l4.613-7.328zm16.777 2.137c1.442 1.73 2.133 4.04 2.133 6.98 0 1.903-.348 3.579-.98 5.02-.633 1.441-1.559 2.54-2.825 3.344-1.21.808-2.652 1.215-4.382 1.215-2.536 0-4.555-.868-5.996-2.54-1.442-1.675-2.133-4.039-2.133-6.98 0-1.906.347-3.578.98-5.02.633-1.445 1.559-2.539 2.824-3.347 1.27-.809 2.711-1.211 4.383-1.211 2.535 0 4.555.863 5.996 2.539zm-10.722 6.98c0 4.614 1.554 6.98 4.726 6.98 3.172 0 4.727-2.308 4.727-6.98 0-4.675-1.555-6.98-4.668-6.98-3.113 0-4.73 2.305-4.73 6.98zm32.281 9.114h-3.168v-8.25c0-1.383 0-2.711.113-3.922.117-1.27.172-2.078.23-2.48l-7.667 14.652h-3.746v-18.23h3.171v8.25c0 1.21 0 2.48-.117 3.808-.113 1.328-.172 2.137-.23 2.48l7.55-14.539h3.864zm-10.723-23.364c-.98-.75-1.496-1.73-1.672-2.945l2.133-.46c.23.75.578 1.269 1.098 1.616.52.344 1.152.461 1.96.461.805 0 1.497-.172 2.016-.52.52-.347.922-.866 1.153-1.558l2.133.461c-.114 1.27-.692 2.25-1.672 2.945-.98.692-2.192 1.094-3.63 1.094-1.44 0-2.597-.344-3.573-1.094zm47.215 19.04c-1.957 1.789-4.726 2.71-8.242 2.77v2.71h-3.172v-2.71c-3.687-.177-6.457-1.157-8.36-2.946-1.902-1.785-2.882-4.324-2.882-7.555 0-3.406.98-6.004 2.941-7.789 1.961-1.79 4.727-2.715 8.242-2.77v-2.425h3.172v2.425c3.692.172 6.457 1.153 8.36 2.942 1.902 1.789 2.883 4.328 2.883 7.558 0 3.403-.981 6-2.942 7.79zm-17.293-1.79c1.324 1.27 3.285 2.02 5.938 2.133v-16.152c-2.711.172-4.672.863-5.996 2.133-1.325 1.27-1.903 3.289-1.903 6 0 2.715.633 4.617 1.961 5.945zm14.93 0c1.27-1.27 1.902-3.289 1.902-6 0-2.71-.633-4.617-1.96-5.945-1.325-1.265-3.286-2.015-5.938-2.133v16.157c2.71-.176 4.672-.868 5.996-2.137zm23.637-1.905H561c.113 2.019.633 3.464 1.5 4.445.863.921 2.016 1.44 3.398 1.44.868 0 1.672-.116 2.422-.401.75-.29 1.5-.637 2.309-1.215l1.383 1.906c-1.961 1.5-4.035 2.309-6.344 2.309-2.535 0-4.496-.809-5.938-2.48-1.44-1.677-2.132-3.927-2.132-6.868 0-1.902.289-3.578.922-5.02.636-1.441 1.5-2.597 2.652-3.46a6.85 6.85 0 014.035-1.27c2.422 0 4.266.809 5.594 2.363 1.27 1.617 1.96 3.809 1.96 6.637 0 .52 0 1.098-.058 1.613zm-3.055-2.536c0-1.789-.348-3.176-1.098-4.098-.746-.921-1.785-1.441-3.226-1.441-2.594 0-4.036 1.902-4.266 5.77h8.531v-.23zm22.539 7.961v7.73h-2.594l-.52-5.19h-11.699l-.52 5.19h-2.593v-7.73h1.266c.578-.348.98-.809 1.328-1.27.344-.46.633-1.328.863-2.48.29-1.156.461-2.887.633-5.137l.465-6.808h11.414v15.695zm-5.07-13.156h-5.364l-.289 3.867c-.172 2.133-.343 3.809-.574 4.96-.23 1.153-.52 2.02-.867 2.653-.344.637-.922 1.215-1.672 1.676H587v-13.156zm23.347 7.731h-11.644c.113 2.019.633 3.464 1.496 4.445.867.921 2.02 1.44 3.402 1.44.863 0 1.672-.116 2.422-.401.75-.29 1.5-.637 2.305-1.215l1.383 1.906c-1.957 1.5-4.036 2.309-6.34 2.309-2.535 0-4.496-.809-5.938-2.48-1.441-1.677-2.133-3.927-2.133-6.868 0-1.902.29-3.578.922-5.02.633-1.441 1.5-2.597 2.653-3.46a6.84 6.84 0 014.035-1.27c2.422 0 4.265.809 5.593 2.363 1.266 1.617 1.958 3.809 1.958 6.637 0 .52 0 1.098-.055 1.613zm-3.054-2.536c0-1.789-.348-3.176-1.098-4.098-.75-.921-1.785-1.441-3.227-1.441-2.593 0-4.035 1.902-4.265 5.77h8.531v-.23zm21.675-5.598c1.094 1.672 1.614 3.98 1.614 7.04 0 2.882-.633 5.19-1.844 6.921-1.27 1.73-3 2.657-5.305 2.657-2.02 0-3.633-.696-4.785-2.079v8.653l-3.172.406v-25.617h2.711l.23 2.48a7.724 7.724 0 012.422-2.132c.922-.52 1.961-.75 2.997-.75 2.308 0 4.035.804 5.132 2.48zm-1.789 7.04c0-4.676-1.383-6.981-4.093-6.981-.922 0-1.727.29-2.477.805-.75.52-1.383 1.215-1.961 2.02v8.886c.461.691 1.04 1.27 1.73 1.672.692.406 1.442.578 2.305.578 2.996 0 4.496-2.309 4.496-6.98zm21.157 6.519c.234.344.636.633 1.156.809l-.75 2.191c-.922-.117-1.73-.406-2.309-.809-.574-.402-.976-1.039-1.265-1.96-1.211 1.847-3.055 2.71-5.422 2.71-1.785 0-3.227-.52-4.266-1.5-1.035-.98-1.555-2.363-1.555-3.98 0-1.961.692-3.402 2.075-4.441 1.382-1.04 3.343-1.56 5.937-1.56h2.824v-1.327c0-1.27-.285-2.192-.922-2.77-.632-.574-1.554-.808-2.882-.808-1.325 0-2.996.347-4.899.984l-.808-2.309c2.25-.808 4.382-1.27 6.285-1.27 2.133 0 3.746.52 4.785 1.56 1.039 1.035 1.613 2.535 1.613 4.5v8.363c0 .75.117 1.27.403 1.676zm-3.575-2.191v-4.215h-2.363c-3.344 0-5.07 1.27-5.07 3.75 0 1.097.285 1.906.804 2.484.52.574 1.329.805 2.364.805 1.847 0 3.23-.922 4.265-2.824zm23.407 2.191h2.77v7.73h-2.595l-.52-5.19h-13.316V180.93h3.168v15.636h7.325V180.93h3.168zm20.753 2.594h-3.168v-8.25c0-1.383 0-2.711.114-3.922.117-1.27.172-2.078.23-2.48l-7.668 14.652h-3.746v-18.23h3.172v8.25c0 1.21 0 2.48-.117 3.808-.113 1.328-.172 2.137-.23 2.48l7.554-14.539h3.86zm20.754 0h-3.168v-8.25c0-1.383 0-2.711.114-3.922.117-1.27.172-2.078.23-2.48l-7.668 14.652h-3.746v-18.23h3.172v8.25c0 1.21 0 2.48-.117 3.808-.114 1.328-.172 2.137-.23 2.48l7.55-14.539h3.863zm0 0"/></g></svg>