<svg viewBox="0 0 203 34" fill="#fff" xmlns="http://www.w3.org/2000/svg"><path d="M34.716 25.947H17.408c-.5.1-1 .2-1.401.497-.5.299-.9.696-1.2 1.094l-3.502 6.064h27.913l-4.502-7.655zm-9.704-2.386c.5.299 1.1.497 1.601.497h7.004L19.61 0l-4.503 7.655 8.505 14.614c.4.497.8.994 1.4 1.292zm-7.103-6.362c0-.597-.1-1.193-.4-1.69l-3.502-5.965L0 33.602h8.904l8.404-14.514c.5-.597.6-1.193.6-1.89zm41.22-1.392c0-.298.3-11.731.3-11.731l-3.102 11.731h-2.4L50.824 4.076s.3 11.234.3 11.731h-2.602V1.491h3.902l2.802 10.638L58.028 1.49h3.902v14.316h-2.801zm17.708 0h-2.701V6.462l-6.403 7.655v1.69H65.03V1.491h2.702v9.246l6.403-7.655v-1.59h2.701v14.315zm12.106 0V9.345H82.74v6.462h-2.7V1.491h2.7V6.86h6.203V1.49h2.702v14.316h-2.702zm17.41-14.316v14.316h-2.701V3.977h-6.003v11.83h-2.702V1.491h11.406zm8.802 0c3.002 0 5.103 1.79 5.103 4.772 0 2.585-1.501 4.673-5.303 4.673h-2.701v4.871h-2.602V1.491h5.503zm-2.901 7.257h2.401c1.901 0 2.901-.894 2.901-2.584 0-2.287-1.901-2.386-3.201-2.386h-2.101v4.97zm16.31-7.654c4.402 0 6.903 3.579 6.903 7.456 0 3.28-1.801 7.555-6.903 7.555-4.202 0-6.804-3.48-6.804-7.456-.1-4.175 2.602-7.555 6.804-7.555zm0 12.526c2.101 0 4.102-1.59 4.102-4.871 0-2.585-1.301-5.17-4.202-5.17-2.401 0-4.102 1.889-4.102 4.97 0 2.188 1.1 5.071 4.202 5.071zm20.11 2.187c0-.298.3-11.731.3-11.731l-3.102 11.731h-2.401l-3.102-11.731s.301 11.234.301 11.731h-2.602V1.491h3.902l2.802 10.638 2.801-10.638h3.902v14.316h-2.801zm11.205-11.93v11.83h-2.702V3.877h-3.902V1.491h10.606v2.386h-4.002zm12.306-2.783c4.402 0 6.903 3.579 6.903 7.456 0 3.28-1.801 7.555-6.903 7.555-4.202 0-6.803-3.48-6.803-7.456-.101-4.175 2.701-7.555 6.803-7.555zm0 12.526c2.101 0 4.202-1.59 4.202-4.871 0-2.585-1.301-5.17-4.202-5.17-2.401 0-4.102 1.889-4.102 4.97 0 2.188 1.1 5.071 4.102 5.071zm15.107-12.129c3.002 0 5.103 1.79 5.103 4.772 0 2.585-1.501 4.673-5.303 4.673h-2.701v4.871h-2.702V1.491h5.603zm-2.901 7.257h2.401c1.901 0 2.901-.894 2.901-2.584 0-2.287-1.901-2.386-3.201-2.386h-2.101v4.97zm18.608-7.257v2.386h-5.903v11.83h-2.701V1.392h8.604M54.026 19.286c3.002 0 5.103 1.79 5.103 4.772 0 2.585-1.501 4.673-5.203 4.673h-2.701v4.87h-2.702V19.287h5.503zm-2.901 7.257h2.4c1.902 0 2.902-.894 2.902-2.584 0-2.287-1.9-2.386-3.201-2.386h-2.101v4.97zm16.208-7.654c4.403 0 6.904 3.579 6.904 7.456 0 3.28-1.801 7.555-6.904 7.555-4.202 0-6.803-3.48-6.803-7.456-.1-4.175 2.701-7.555 6.803-7.555zm0 12.526c2.101 0 4.102-1.59 4.102-4.871 0-2.585-1.3-5.17-4.202-5.17-2.4 0-4.102 1.889-4.102 4.97.1 2.287 1.2 5.071 4.202 5.071zm21.511-1.789C88.344 30.819 86.743 34 82.64 34c-3.402 0-6.704-2.287-6.704-7.655 0-3.181 1.801-7.357 6.804-7.357 3.702 0 5.202 2.386 5.803 4.375l-2.702.695c-.2-1.59-1.5-2.684-3.101-2.684-2.301 0-4.002 1.79-4.002 4.971 0 1.988.8 5.07 4.002 5.07 1.9 0 3.101-1.392 3.502-2.883l2.6 1.094zm14.406 0c-.5 1.193-2.101 4.374-6.203 4.374-3.402 0-6.703-2.287-6.703-7.655 0-3.181 1.8-7.357 6.803-7.357 3.702 0 5.203 2.386 5.803 4.375l-2.701.695c-.2-1.59-1.501-2.684-3.102-2.684-2.301 0-4.002 1.79-4.002 4.971 0 1.988.8 5.07 4.002 5.07 1.901 0 3.102-1.392 3.502-2.883l2.601 1.094zm13.808 3.976h-2.702v-9.345l-6.403 7.655v1.69h-2.701V19.286h2.701v9.246l6.403-7.655v-1.59h2.702v14.315zm15.008 0h-2.702v-9.345l-6.403 7.655v1.69h-2.701V19.286h2.701v9.246l6.403-7.655v-1.59h2.702v14.315z"/></svg>