<svg width="139" height="47" fill="none" xmlns="http://www.w3.org/2000/svg"><path d="M22.625 46.892l.082-23.107L42.498 12.82l-4.06 19.592-15.813 14.481zM24.4 24.83l.022 18.14 12.454-11.482 3.177-15.331L24.4 24.829zm-4.351 22.062L4.091 32.411.032 12.819l19.791 10.966.226 23.107zM5.653 31.487L18.25 42.97l-.121-18.14-15.654-8.673 3.177 15.331zm15.612-10.214L.652 10.056 21.265.484l20.613 9.572-20.613 11.217zM4.507 10.18l16.758 9.12 16.758-9.12-16.758-7.782L4.507 10.18z" fill="#fff"/><path fill-rule="evenodd" clip-rule="evenodd" d="M138.366 16.58v5.967h-.844v-5.435c0-1.873-1.049-3.122-2.873-3.122-1.756 0-3.124 1.365-3.124 3.284v5.273h-.866V9.457h.866V15.1c.593-1.064 1.596-1.896 3.261-1.896 2.143 0 3.443 1.387 3.58 3.376zm-14.069 6.175h-.547c-2.485-.14-4.355-2.267-4.355-4.741v-.023c0-2.567 2.029-4.787 4.606-4.787 1.71 0 2.759.786 3.625 1.665l-.638.647c-.775-.809-1.665-1.503-3.01-1.503-2.052 0-3.625 1.735-3.625 3.932v.046c0 2.197 1.641 3.954 3.716 3.954 1.254 0 2.258-.67 3.01-1.526l.616.532c-.867.994-1.893 1.734-3.398 1.804zm-11.674 0h-.547c-2.098-.116-3.329-1.642-3.329-3.747v-5.596h.866v5.434c0 1.874 1.049 3.122 2.873 3.122 1.756 0 3.124-1.364 3.124-3.26v-5.296h.867v9.135h-.867v-1.689c-.57 1.018-1.505 1.827-2.987 1.897zm-11.013 0h-.547c-2.53-.14-4.355-2.267-4.355-4.741v-.023c0-2.567 1.984-4.787 4.652-4.787 2.69 0 4.628 2.174 4.628 4.74v.047c0 2.474-1.824 4.625-4.378 4.764zm-31.42 0h-.547c-2.257-.116-4.172-2.012-4.172-4.764v-.023c0-2.66 1.847-4.764 4.286-4.764 2.531 0 4.127 2.058 4.127 4.787 0 .162 0 .208-.023.347h-7.478c.16 2.29 1.778 3.607 3.534 3.607 1.413 0 2.371-.624 3.1-1.433l.617.531c-.867.948-1.87 1.642-3.444 1.712zm-18.765-.208V9.989h.867l8.55 10.939V9.989h.89v12.558h-.707L52.315 11.4v11.147h-.89zm18.287-8.557c-1.779 0-3.17 1.526-3.33 3.561h6.567c-.114-1.85-1.162-3.56-3.237-3.56zm14.706 8.557h-1.094l-3.17-4.07-3.192 4.07h-1.049l3.694-4.649-3.534-4.486h1.072l3.032 3.862 3.056-3.862h1.049l-3.557 4.463 3.693 4.672zm6.977-11.679v11.679h-.912V10.868h-4.332V9.99h9.554v.88h-4.31zm13.658 7.123c0-2.22-1.641-3.978-3.716-3.978-2.144 0-3.671 1.78-3.671 3.932v.046c0 2.197 1.619 3.954 3.694 3.954 2.143 0 3.693-1.78 3.693-3.931v-.023zM56.647 31.588v-4.116h.296v4.116h-.296zm46.582.07h-.593c-1.071-.139-1.733-1.064-1.733-2.105v-.023c0-1.11.799-2.127 2.03-2.127 1.231 0 2.052.994 2.052 2.127 0 1.04-.707 1.989-1.756 2.128zm-27.794 0h-.57c-1.072-.139-1.756-1.064-1.756-2.105v-.023c0-1.11.82-2.127 2.052-2.127 1.231 0 2.052.994 2.052 2.127 0 1.04-.707 1.989-1.778 2.128zm-12.108-.07l-2.873-3.653v3.654h-.273v-4.117h.273l2.805 3.585v-3.585h.296v4.116h-.228zm6.567 0l-2.873-3.653v3.654h-.296v-4.117h.296l2.805 3.585v-3.585h.296v4.116h-.228zm7-2.058c0-1.017-.73-1.85-1.733-1.85-1.003 0-1.733.833-1.733 1.85 0 1.018.73 1.873 1.733 1.873 1.003 0 1.733-.832 1.733-1.85v-.023zm4.788 2.105h-.273l-1.779-4.163h.342l1.573 3.793 1.596-3.793h.32l-1.779 4.163zm7.433-.047l-.501-1.133H86.22l-.525 1.134h-.319l1.892-4.14h.297l1.892 4.14h-.342zm-1.71-3.792l-1.071 2.382h2.143l-1.072-2.382zm5.792-.023v3.816H92.9v-3.816h-1.413v-.3h3.123v.3h-1.413zm4.355 3.816v-4.117h.296v4.116h-.296zm7.114-2.059c0-1.017-.73-1.85-1.733-1.85-1.003 0-1.733.833-1.733 1.85 0 1.018.73 1.873 1.733 1.873 1.003 0 1.733-.832 1.733-1.85v-.023zm6.475 2.058l-2.873-3.653v3.654h-.273v-4.117h.273l2.805 3.585v-3.585h.296v4.116h-.228zm7.137 0v-4.116h.296v3.839h2.372v.277h-2.668zm8.733 0l-.525-1.133h-2.394l-.524 1.134h-.319l1.892-4.14h.296l1.893 4.14h-.319zm-1.733-3.792l-1.072 2.382h2.143l-1.071-2.382zm7.889 2.66v.022c0 .694-.593 1.11-1.459 1.11h-1.779v-4.116h1.687c.456 0 .821.139 1.049.37a.879.879 0 01.274.648v.023c0 .555-.365.832-.707.971.502.139.935.416.935.971zm-.547-1.92v-.023c0-.44-.365-.74-1.004-.74h-1.368v1.619h1.323c.615 0 1.049-.301 1.049-.856zm.228 1.92c0-.486-.433-.787-1.232-.787h-1.368v1.642h1.46c.707 0 1.14-.324 1.14-.833v-.023z" fill="#fff"/></svg>