<svg width="169" height="48" fill="none" xmlns="http://www.w3.org/2000/svg"><path d="M11.96 10.174H0v37.825h38.451V36.26h-26.49V10.174z" fill="#fff"/><path d="M24.143 24.303v-14.13H11.96V36.26h26.49V24.303H24.143z" fill="#0367A2"/><path d="M38.451 10.174H24.143v14.13H38.45v-14.13z" fill="#E64727"/><path fill-rule="evenodd" clip-rule="evenodd" d="M24.143 3.37v3.239h17.963v17.695h3.322V3.37H24.143z" fill="#E64727"/><path d="M61.863 3.348c2.817 0 4.297 1.434 4.297 3.348s-1.486 3.348-4.297 3.348h-3.121v3.5h-1.33V3.348h4.451zm0 1.152h-3.121v4.37h3.123c1.993 0 2.968-.958 2.968-2.196-.001-1.217-.976-2.174-2.97-2.174zm6.379 3.935c.03-.974.352-1.918.925-2.713a5.04 5.04 0 012.299-1.76 5.142 5.142 0 012.906-.22c.97.207 1.855.691 2.546 1.39a4.927 4.927 0 011.34 2.541 4.873 4.873 0 01-.313 2.844 4.982 4.982 0 01-1.862 2.201 5.12 5.12 0 01-2.791.825 5.152 5.152 0 01-1.966-.396 5.076 5.076 0 01-1.654-1.115 4.966 4.966 0 01-1.085-1.657 4.891 4.891 0 01-.345-1.94zm8.86 0a3.687 3.687 0 00-.771-1.993 3.795 3.795 0 00-1.758-1.252 3.866 3.866 0 00-2.169-.101 3.813 3.813 0 00-1.871 1.08 3.701 3.701 0 00-.962 1.912 3.664 3.664 0 00.262 2.115 3.746 3.746 0 001.4 1.63 3.85 3.85 0 002.082.609 3.906 3.906 0 001.508-.324 3.846 3.846 0 001.258-.88 3.762 3.762 0 001.022-2.796zm11.363-4.609c.306.124.595.284.86.478l-.553.892c-.222-.13-.488-.261-.753-.392a4.623 4.623 0 00-1.86-.37 4.113 4.113 0 00-2.83 1.2 3.963 3.963 0 00-1.167 2.8c0 1.048.419 2.054 1.166 2.802a4.113 4.113 0 002.83 1.199 4.53 4.53 0 001.972-.457c.264-.122.517-.267.754-.434l.554.891a3.553 3.553 0 01-.886.544 5.635 5.635 0 01-2.414.544 5.292 5.292 0 01-2.012-.371 5.216 5.216 0 01-1.71-1.103 5.103 5.103 0 01-1.145-1.665 5.025 5.025 0 010-3.94 5.102 5.102 0 011.145-1.664 5.215 5.215 0 011.71-1.103 5.292 5.292 0 012.012-.371c.802.03 1.591.205 2.327.52zm10.477 0c.306.124.595.284.86.478l-.554.892c-.221-.13-.487-.261-.753-.392a4.623 4.623 0 00-1.86-.37 4.114 4.114 0 00-2.831 1.2 3.963 3.963 0 00-1.166 2.8c0 1.048.418 2.054 1.166 2.802a4.114 4.114 0 002.83 1.199 4.53 4.53 0 001.972-.457 4.85 4.85 0 00.754-.434l.553.891a3.552 3.552 0 01-.885.544 5.636 5.636 0 01-2.415.544 5.292 5.292 0 01-2.011-.371 5.217 5.217 0 01-1.71-1.103 5.106 5.106 0 01-1.146-1.665 5.027 5.027 0 010-3.94 5.106 5.106 0 011.145-1.664 5.216 5.216 0 011.71-1.103 5.292 5.292 0 012.012-.371 6.522 6.522 0 012.329.52zm4.983 7.587l6.312-8.087h1.33V13.52h-1.33V5.434h-.066l-6.311 8.087h-1.33V3.326h1.33v8.087h.065zm12.271 0l6.313-8.087h1.33V13.52h-1.33V5.434h-.089l-6.312 8.087h-1.33V3.326h1.33v8.087h.088zM116.794 0h1.107c0 .369.149.723.415.984a1.433 1.433 0 002.005 0c.266-.261.415-.615.415-.984h1.108a2.456 2.456 0 01-.756 1.724 2.55 2.55 0 01-1.77.711 2.552 2.552 0 01-1.77-.71A2.458 2.458 0 01116.794 0zm17.454 3.826c.306.124.595.284.86.478l-.553.892a11.85 11.85 0 00-.754-.392 4.623 4.623 0 00-1.86-.37 4.112 4.112 0 00-2.831 1.2 3.964 3.964 0 00-1.166 2.8c0 1.048.419 2.054 1.166 2.802a4.112 4.112 0 002.831 1.199 4.528 4.528 0 001.971-.457c.264-.122.516-.267.754-.434l.554.891a3.57 3.57 0 01-.886.544 5.635 5.635 0 01-2.415.544 5.29 5.29 0 01-2.011-.371 5.227 5.227 0 01-1.711-1.103 5.096 5.096 0 01-1.144-1.665 5.02 5.02 0 010-3.94 5.095 5.095 0 011.144-1.664 5.226 5.226 0 011.711-1.103 5.29 5.29 0 012.011-.371 6.518 6.518 0 012.329.52zm24.365 9.717h-1.418l-1.041-2.325h-5.868l-1.042 2.325h-1.418l4.518-10.195h1.706l4.563 10.195zm-7.775-3.5h4.806l-2.37-5.326h-.066l-2.37 5.326zM169 3.348v10.195h-1.33V9.761h-3.721l-2.817 3.783h-1.545l2.968-4v-.066a3.163 3.163 0 01-1.108-.586 2.746 2.746 0 01-.85-1.028 2.686 2.686 0 01-.257-1.298c0-1.805 1.417-3.196 4.163-3.196H169v-.022zm-4.518 5.24h3.189V4.5h-3.189c-1.906 0-2.817.87-2.817 2.043 0 1.174.89 2.044 2.817 2.044zM57.411 20.565h4.607c2.747 0 3.943 1.174 3.943 2.765.008.315-.066.628-.213.91a1.905 1.905 0 01-.629.698c-.262.178-.553.31-.86.392v.065c.434.09.852.243 1.24.456.372.189.683.476.898.828.216.353.326.758.32 1.169 0 1.522-1.418 2.913-4.098 2.913h-5.182V20.565h-.026zm4.585 4.152c1.197 0 1.773-.586 1.773-1.24 0-.652-.598-1.239-1.773-1.239h-2.524v2.478l2.524.001zm-2.524 1.674v2.696h3.123c1.351 0 1.927-.566 1.927-1.306 0-.826-.576-1.391-1.927-1.391l-3.123.001zm11.008-5.826h8.306v1.674h-6.224v2.63h4.297v1.674h-4.297v2.546h6.379v1.674H70.48V20.565zm21.396 0v10.196h-2.081v-4.218h-5.339v4.218h-2.082V20.565h2.082v4.304h5.339v-4.304h2.081zm3.81 0h2.082v2.913c-.003.306.056.61.174.893a2.3 2.3 0 00.513.758 2.386 2.386 0 001.683.675 6.864 6.864 0 001.683-.217c.243-.066.465-.154.687-.218v-4.804h2.082v10.196h-2.082v-3.653c-.2.066-.443.154-.687.218a7.944 7.944 0 01-1.816.217 4.069 4.069 0 01-1.662-.223 4.012 4.012 0 01-1.422-.872 3.923 3.923 0 01-.933-1.369 3.862 3.862 0 01-.28-1.623v-2.89h-.022zm16.545 7.413h-.886l-3.633-7.435h2.304l2.817 5.891h.156l2.817-5.891h2.303l-4.895 10.195h-2.303l1.32-2.76zm13.622-7.413c2.902 0 4.451 1.522 4.451 3.5 0 1.957-1.55 3.5-4.451 3.5h-2.68v3.196h-2.082V20.565h4.762zm-2.68 1.674v3.652h2.68c1.417 0 2.303-.869 2.303-1.826 0-.957-.886-1.826-2.303-1.826h-2.68zm19.913-1.674v10.196h-2.082v-4.218h-5.338v4.218h-2.082V20.565h2.082v4.304h5.338v-4.304h2.082zM157.22 30.76h-2.215l-.819-2.043h-5.116l-.819 2.044h-2.219l4.297-10.196h2.588l4.303 10.196zm-7.42-3.804h3.632l-1.772-4.217h-.066l-1.794 4.217zm19.2-6.391v10.196h-2.082v-3.5h-2.901l-2.525 3.5h-2.371l2.817-3.87v-.065a3.281 3.281 0 01-1.041-.587 2.882 2.882 0 01-.797-1.044 2.83 2.83 0 01-.244-1.282c0-1.956 1.418-3.348 4.297-3.348H169zm-4.806 5.021h2.746v-3.348h-2.746c-1.418 0-2.149.74-2.149 1.675-.022.804.731 1.674 2.149 1.674zM70.369 42.891c.03-.974.352-1.917.925-2.712a5.04 5.04 0 012.298-1.76 5.14 5.14 0 012.906-.221 5.08 5.08 0 012.546 1.39 4.928 4.928 0 011.34 2.541 4.874 4.874 0 01-.313 2.844 4.981 4.981 0 01-1.861 2.201 5.12 5.12 0 01-2.79.826 5.152 5.152 0 01-1.967-.397 5.072 5.072 0 01-1.655-1.114 4.965 4.965 0 01-1.085-1.657 4.895 4.895 0 01-.344-1.94zm8.841 0a3.687 3.687 0 00-.771-1.992 3.796 3.796 0 00-1.758-1.252 3.866 3.866 0 00-2.169-.102 3.813 3.813 0 00-1.871 1.081 3.701 3.701 0 00-.962 1.911 3.664 3.664 0 00.262 2.116 3.745 3.745 0 001.4 1.629 3.85 3.85 0 002.082.61 3.908 3.908 0 001.508-.325 3.844 3.844 0 001.257-.88 3.76 3.76 0 00.803-1.295c.176-.48.25-.991.22-1.5zm11.381 3.569l-3.255-6.565h-.067l-.973 8.083h-1.33l1.262-10.196h1.487l3.478 7.065h.066l3.478-7.065h1.487l1.262 10.196h-1.33l-.975-8.087h-.066L91.85 46.46h-1.26zm21.197-8.678v10.196h-1.33v-9.022h-6.377v9.022h-1.33V37.782h9.037zm15.572 10.196h-1.418l-1.042-2.326h-5.868l-1.041 2.326h-1.419l4.519-10.196h1.705l4.564 10.196zm-7.797-3.5h4.828l-2.392-5.304h-.066l-2.37 5.304zm21.197-6.696v10.196h-1.33v-4.436h-6.377v4.434h-1.33V37.782h1.33v4.587h6.379v-4.587h1.328zm6.865 8.088l6.313-8.088h1.33v10.196h-1.33V39.89h-.067l-6.311 8.087h-1.33V37.782h1.33v8.087h.065zM169 37.782v10.196h-1.33v-3.783h-3.721l-2.817 3.783h-1.545l2.968-4v-.066a3.163 3.163 0 01-1.108-.586 2.746 2.746 0 01-.85-1.027 2.686 2.686 0 01-.257-1.3c0-1.804 1.417-3.194 4.163-3.194H169v-.023zm-4.518 5.24h3.189v-4.066h-3.189c-1.906 0-2.817.87-2.817 2.044.004 1.152.89 2.022 2.817 2.022zM142.045 7.5l4.606 6.043h-1.639L141.07 8.37l-2.149 2.109v3.066h-1.33V3.348h1.33v5.457h.067l5.646-5.457h1.706L142.045 7.5zM61.863 41.934l4.607 6.044h-1.639l-3.943-5.174-2.148 2.108v3.066h-1.33V37.782h1.33v5.457h.066l5.647-5.457h1.706l-4.296 4.152z" fill="#fff"/></svg>