<?xml version="1.0" encoding="utf-8"?>
<!-- Generator: Adobe Illustrator 26.3.1, SVG Export Plug-In . SVG Version: 6.00 Build 0)  -->
<svg version="1.1" id="Слой_1" xmlns="http://www.w3.org/2000/svg" xmlns:xlink="http://www.w3.org/1999/xlink" x="0px" y="0px"
	 width="394.9px" height="76.3px" viewBox="0 0 394.9 76.3" style="enable-background:new 0 0 394.9 76.3;" xml:space="preserve">
<style type="text/css">
	.st0{fill:#2553C3;}
	.st1{clip-path:url(#SVGID_00000044883797664622489160000015321542408924861881_);}
	.st2{fill:#00BFFF;}
	.st3{fill:#FF0053;}
	.st4{fill:#FFFFFF;}
</style>
<g>
	<rect class="st0" width="394.9" height="76.3"/>
	<g>
		<g>
			<defs>
				<rect id="SVGID_1_" x="23.7" y="7.4" width="350" height="50"/>
			</defs>
			<clipPath id="SVGID_00000066507580059633360900000017873014764071381171_">
				<use xlink:href="#SVGID_1_"  style="overflow:visible;"/>
			</clipPath>
			<g style="clip-path:url(#SVGID_00000066507580059633360900000017873014764071381171_);">
				<path class="st2" d="M109.3,56.1c4.8,0.1,9.5-1.8,12.8-5.3c3.5-3.4,5.4-8,5.3-12.8c0.1-4.8-1.8-9.5-5.3-12.8
					c-7.1-7-18.5-7-25.7,0c-3.4,3.4-5.3,8-5.2,12.8c-0.1,4.8,1.8,9.5,5.2,12.8C99.8,54.3,104.5,56.2,109.3,56.1z M100.5,29.1
					c4.9-4.7,12.7-4.7,17.6,0c2.4,2.4,3.7,5.6,3.6,8.9c0.1,3.4-1.2,6.6-3.6,9c-4.9,4.7-12.7,4.7-17.6,0c-2.4-2.4-3.7-5.6-3.6-9
					C96.8,34.7,98.1,31.4,100.5,29.1z"/>
				<path class="st2" d="M197.9,19.9c-4.8-0.1-9.5,1.8-12.8,5.3c-3.4,3.4-5.4,8-5.3,12.8c-0.1,4.8,1.8,9.5,5.3,12.8
					c7.1,7,18.5,7,25.7,0c3.4-3.4,5.3-8,5.2-12.8c0.1-4.8-1.8-9.5-5.2-12.8C207.4,21.7,202.7,19.8,197.9,19.9z M206.7,46.9
					c-4.9,4.7-12.7,4.7-17.6,0c-2.4-2.4-3.7-5.6-3.6-8.9c-0.1-3.3,1.2-6.6,3.6-8.9c4.9-4.7,12.7-4.7,17.6,0c2.4,2.4,3.7,5.6,3.6,8.9
					C210.3,41.3,209.1,44.6,206.7,46.9z"/>
				<path class="st3" d="M332.8,20h-7.1l-12.5,17.7l13.1,18.7h7.1l-12.7-18.6L332.8,20z"/>
				<path class="st3" d="M84.2,56.4L71.5,37.8l12.2-17.7h-7.1L64.1,37.7l13,18.7H84.2z"/>
				<path class="st4" d="M291.3,31.7l-9,13V20h-6v36.4h4.7l14.7-21.2h0.1v-6.8l-0.1-3.1L291.3,31.7z"/>
				<path class="st2" d="M300.1,24.9v6.8v24.7h5.9V20h-5.9V24.9z"/>
				<path class="st2" d="M256.6,24.8v6.8v24.6h6V19.9h-6V24.8z"/>
				<path class="st4" d="M233.1,31.6l11.7,16.7l7.4-10.6v-9.9l-7.4,10.7l-13-18.6h-4.7v36.3h6V31.6z"/>
				<path class="st4" d="M162.6,34.8h-13.5v5.7h13.5v15.7h6V19.9h-6V34.8z"/>
				<path class="st2" d="M138.7,19.9v36.3h5.9V40.5v-5.7V19.9H138.7z"/>
				<path class="st4" d="M353.6,20l-13.2,36.4h6.5l2.6-7.3h10.8l-1.9-5.6h-7l5.8-16.4l10.3,29.3h6.4L360.8,20H353.6z"/>
				<path class="st4" d="M38.8,20.1c-3.1-0.1-6.1,0.7-8.8,2.2c-2.6,1.4-4.8,3.6-6.3,6.1l5,2.9c0.9-1.8,2.4-3.2,4.1-4.2
					c1.8-1,3.9-1.5,6-1.5c2.9-0.1,5.8,0.9,8.1,2.7c2.2,1.8,3.6,4.4,4,7.2H34.2v5.4h22.7c0.1-0.9,0.2-1.8,0.2-2.7
					c0.1-4.8-1.7-9.5-5.1-12.9C48.4,21.8,43.7,19.9,38.8,20.1z"/>
				<path class="st4" d="M49.3,45.3c-0.6,1.1-1.5,2-2.4,2.8c-2.3,1.8-5.2,2.8-8.1,2.7c-2.1,0-4.2-0.5-6-1.5
					c-1.7-0.9-3.1-2.4-4.1-4.1l-5,2.9c1.5,2.6,3.7,4.7,6.3,6.1c2.7,1.5,5.7,2.3,8.8,2.2c7.4,0.2,14.2-4.2,16.9-11.2L49.3,45.3
					C49.3,45.2,49.3,45.3,49.3,45.3z"/>
			</g>
		</g>
	</g>
</g>
</svg>
