<?xml version="1.0" encoding="UTF-8"?>
<svg xmlns="http://www.w3.org/2000/svg" fill="#ffffff" viewBox="0 0 756 300" version="1.1">
<g id="surface1">
<path style=" stroke:none;fill-rule:nonzero;fill-opacity:1;" d="M 59.621094 215.777344 C 59.621094 215.203125 59.621094 214.625 59.046875 214.046875 C 57.890625 210.585938 53.28125 208.855469 48.667969 209.433594 C 45.785156 210.007812 43.480469 211.164062 41.75 212.894531 C 40.019531 214.625 39.445312 216.933594 40.019531 218.664062 C 40.019531 219.242188 40.019531 219.816406 40.597656 220.394531 C 41.75 223.855469 46.363281 225.585938 50.972656 225.011719 C 56.164062 223.855469 60.199219 219.816406 59.621094 215.777344 Z M 59.621094 215.777344 "/>
<path style=" stroke:none;fill-rule:nonzero;fill-opacity:1;" d="M 71.152344 223.28125 C 71.152344 222.703125 71.152344 222.125 70.574219 221.546875 C 69.421875 218.664062 65.964844 216.355469 61.929688 216.355469 C 61.929688 221.546875 57.316406 225.585938 52.128906 227.316406 L 52.128906 227.894531 C 53.28125 231.355469 57.890625 233.085938 62.503906 232.511719 C 68.269531 231.933594 71.726562 227.894531 71.152344 223.28125 Z M 71.152344 223.28125 "/>
<path style=" stroke:none;fill-rule:nonzero;fill-opacity:1;" d="M 77.492188 211.742188 C 77.492188 211.164062 77.492188 210.585938 76.917969 210.007812 C 75.765625 206.546875 71.152344 204.816406 66.539062 205.394531 C 63.65625 205.972656 61.351562 207.125 59.621094 208.855469 L 59.046875 209.433594 C 60.199219 210.585938 60.773438 211.164062 61.351562 212.894531 C 61.351562 213.277344 61.542969 213.664062 61.929688 214.046875 C 66.539062 214.046875 71.152344 216.355469 72.882812 219.816406 C 76.339844 217.511719 78.070312 214.625 77.492188 211.742188 Z M 77.492188 211.742188 "/>
<path style=" stroke:none;fill-rule:nonzero;fill-opacity:1;" d="M 200.285156 100.964844 C 195.675781 96.925781 189.332031 96.925781 185.296875 98.082031 C 187.605469 95.195312 193.367188 92.3125 195.097656 92.3125 C 196.828125 92.3125 200.285156 96.351562 200.285156 100.964844 Z M 200.285156 100.964844 "/>
<path style=" stroke:none;fill-rule:nonzero;fill-opacity:1;" d="M 214.699219 83.65625 C 211.816406 67.503906 174.921875 77.886719 155.898438 70.964844 C 155.320312 75.582031 161.660156 83.65625 167.425781 86.542969 C 157.625 95.195312 148.402344 113.660156 146.671875 135.582031 C 144.941406 113.660156 135.71875 95.773438 125.917969 86.542969 C 131.683594 83.65625 138.027344 76.15625 137.449219 70.964844 C 119 77.886719 81.527344 66.925781 78.644531 83.65625 C 78.070312 87.121094 79.800781 92.3125 81.527344 94.042969 C 82.105469 92.890625 83.257812 89.425781 88.445312 88.273438 C 114.390625 84.234375 136.296875 125.773438 116.695312 142.507812 C 116.117188 142.507812 116.695312 143.082031 116.695312 143.082031 L 175.496094 143.082031 C 176.074219 143.082031 176.074219 142.507812 175.496094 142.507812 C 155.898438 125.773438 177.804688 84.234375 203.746094 88.273438 C 208.933594 88.851562 210.664062 92.890625 210.664062 94.042969 C 214.121094 92.3125 215.277344 87.121094 214.699219 83.65625 Z M 214.699219 83.65625 "/>
<path style=" stroke:none;fill-rule:nonzero;fill-opacity:1;" d="M 221.039062 46.15625 C 220.464844 44.425781 236.03125 44.425781 236.03125 54.234375 C 236.03125 60.578125 226.804688 64.042969 226.804688 70.964844 C 226.804688 74.425781 230.265625 76.734375 231.417969 76.734375 C 229.113281 65.773438 238.910156 71.542969 241.21875 73.273438 C 236.03125 58.273438 247.558594 58.273438 246.40625 51.925781 C 245.828125 47.308594 235.453125 48.464844 231.417969 46.15625 C 225.074219 42.117188 217.003906 25.386719 211.816406 42.117188 C 221.617188 51.347656 215.851562 64.617188 203.746094 64.617188 L 203.746094 66.925781 C 218.734375 65.773438 223.921875 54.808594 221.039062 46.15625 Z M 221.039062 46.15625 "/>
<path style=" stroke:none;fill-rule:nonzero;fill-opacity:1;" d="M 52.703125 73.273438 C 55.585938 70.964844 64.808594 65.195312 62.503906 76.734375 C 63.65625 76.734375 67.117188 74.425781 67.117188 70.964844 C 67.117188 64.042969 57.890625 61.15625 57.890625 54.234375 C 57.890625 44.425781 73.457031 44.425781 72.882812 46.15625 C 70 54.808594 75.1875 65.773438 89.601562 66.347656 L 89.601562 64.042969 C 77.492188 64.042969 71.726562 50.773438 81.527344 41.539062 C 76.339844 24.808594 68.847656 41.539062 61.929688 45.578125 C 57.890625 48.464844 48.09375 47.308594 46.9375 51.925781 C 45.785156 58.847656 57.890625 58.273438 52.703125 73.273438 Z M 52.703125 73.273438 "/>
<path style=" stroke:none;fill-rule:nonzero;fill-opacity:1;" d="M 93.636719 100.964844 C 98.246094 96.925781 104.589844 96.925781 108.625 98.082031 C 106.316406 95.195312 100.554688 92.3125 98.824219 92.3125 C 97.09375 92.3125 93.636719 96.351562 93.636719 100.964844 Z M 93.636719 100.964844 "/>
<path style=" stroke:none;fill-rule:nonzero;fill-opacity:1;" d="M 154.167969 8.652344 L 146.671875 0 L 139.753906 8.652344 L 146.671875 17.886719 Z M 154.167969 8.652344 "/>
<path style=" stroke:none;fill-rule:nonzero;fill-opacity:1;" d="M 194.523438 35.769531 L 189.332031 29.425781 L 184.144531 35.769531 L 189.332031 42.117188 Z M 194.523438 35.769531 "/>
<path style=" stroke:none;fill-rule:nonzero;fill-opacity:1;" d="M 109.777344 35.769531 L 104.589844 29.425781 L 99.398438 35.769531 L 104.589844 42.117188 Z M 109.777344 35.769531 "/>
<path style=" stroke:none;fill-rule:nonzero;fill-opacity:1;" d="M 95.363281 66.347656 L 113.8125 66.347656 C 129.378906 66.347656 136.871094 56.539062 138.601562 47.886719 L 154.742188 47.886719 C 157.050781 56.539062 163.96875 66.347656 179.53125 66.347656 L 197.980469 66.347656 C 197.980469 66.347656 201.441406 61.734375 202.015625 59.425781 C 204.898438 51.347656 201.441406 47.308594 195.675781 47.308594 L 188.757812 54.234375 L 181.839844 47.308594 C 176.074219 47.308594 172.613281 51.347656 175.496094 59.425781 C 176.074219 60.578125 176.652344 61.734375 177.804688 63.464844 C 170.886719 62.3125 162.816406 57.695312 161.085938 47.886719 C 161.085938 47.886719 166.273438 39.808594 167.425781 36.347656 C 172.039062 24.808594 166.273438 19.617188 158.203125 19.617188 L 147.25 32.308594 L 136.296875 19.617188 C 128.226562 19.617188 122.460938 24.230469 127.070312 36.347656 C 128.226562 39.808594 133.414062 47.886719 133.414062 47.886719 C 131.683594 57.695312 123.035156 62.886719 116.695312 63.464844 C 117.273438 62.3125 118.425781 60.578125 119 59.425781 C 120.730469 51.347656 117.273438 47.886719 111.507812 47.886719 L 104.589844 54.808594 L 97.671875 47.886719 C 91.90625 47.886719 88.445312 51.925781 91.328125 60.003906 C 91.90625 61.734375 95.363281 66.347656 95.363281 66.347656 Z M 95.363281 66.347656 "/>
<path style=" stroke:none;fill-rule:nonzero;fill-opacity:1;" d="M 289.066406 126.351562 C 285.609375 128.082031 264.277344 138.46875 237.183594 134.429688 C 237.183594 133.273438 237.757812 131.542969 237.757812 130.390625 C 255.628906 128.082031 270.621094 125.199219 279.84375 119.429688 C 290.796875 113.082031 295.410156 98.660156 289.644531 87.695312 C 289.644531 87.695312 289.066406 87.121094 289.066406 87.695312 C 286.183594 91.15625 267.738281 111.929688 238.335938 118.273438 C 238.335938 116.542969 238.335938 115.390625 237.757812 113.660156 C 252.171875 105.582031 266.007812 95.773438 272.347656 87.121094 C 282.148438 73.847656 281.574219 57.117188 271.773438 48.464844 L 270.621094 48.464844 C 267.738281 53.65625 239.488281 100.390625 208.359375 120.582031 C 207.78125 120.582031 207.78125 121.160156 207.203125 121.160156 C 206.050781 121.738281 206.050781 122.890625 207.203125 123.46875 C 210.664062 126.929688 212.96875 131.542969 212.96875 136.738281 C 212.96875 145.390625 206.050781 152.890625 197.40625 154.621094 C 192.792969 155.777344 186.449219 155.199219 180.109375 152.890625 C 180.109375 152.890625 179.53125 152.890625 179.53125 153.46875 L 179.53125 181.738281 C 179.53125 182.316406 180.109375 182.316406 180.109375 181.738281 C 184.144531 171.355469 195.097656 169.046875 200.285156 169.046875 C 202.015625 180.007812 205.476562 189.238281 209.511719 193.855469 C 216.429688 201.933594 227.382812 201.933594 231.992188 196.164062 L 231.992188 195.585938 C 229.113281 193.855469 212.96875 184.046875 210.085938 167.316406 L 213.546875 165.585938 C 218.734375 174.238281 226.230469 182.316406 232.570312 185.199219 C 242.949219 190.394531 252.171875 187.507812 256.207031 180.585938 C 256.207031 180.585938 256.207031 180.007812 255.628906 180.007812 C 249.289062 179.429688 230.265625 173.660156 221.617188 159.816406 L 224.5 156.929688 C 233.148438 163.855469 245.253906 169.625 253.902344 170.777344 C 264.277344 171.929688 275.808594 169.046875 275.808594 156.351562 C 275.808594 156.351562 275.808594 155.777344 275.230469 155.777344 C 271.773438 155.777344 247.558594 156.929688 230.265625 147.121094 L 231.992188 143.660156 C 231.992188 143.660156 257.9375 150.007812 270.042969 147.699219 C 282.148438 145.390625 289.066406 136.160156 287.914062 124.621094 C 289.644531 126.351562 289.066406 126.351562 289.066406 126.351562 Z M 289.066406 126.351562 "/>
<path style=" stroke:none;fill-rule:nonzero;fill-opacity:1;" d="M 60.199219 145.390625 L 61.929688 148.851562 C 44.632812 159.238281 20.996094 158.085938 16.960938 157.507812 C 16.960938 157.507812 16.386719 157.507812 16.386719 158.085938 C 16.386719 170.199219 28.492188 173.660156 38.292969 172.507812 C 46.9375 171.355469 59.046875 165.585938 67.691406 158.660156 C 68.269531 159.816406 69.421875 160.390625 70.574219 161.546875 C 62.503906 175.390625 42.902344 181.160156 36.5625 181.738281 C 35.984375 181.738281 35.984375 182.316406 35.984375 182.316406 C 40.019531 189.816406 49.246094 192.125 59.621094 186.929688 C 65.964844 184.046875 73.457031 175.96875 78.644531 167.316406 L 82.105469 169.046875 C 78.644531 185.777344 63.082031 195.585938 60.199219 197.316406 L 60.199219 197.894531 C 64.808594 203.664062 75.765625 203.664062 82.683594 195.585938 C 86.71875 190.394531 90.175781 181.738281 91.90625 170.777344 C 97.09375 170.777344 108.046875 173.085938 112.082031 183.46875 C 112.082031 184.046875 112.660156 184.046875 112.660156 183.46875 L 112.660156 155.199219 C 112.660156 154.621094 112.082031 154.621094 112.082031 154.621094 C 105.742188 156.929688 99.398438 156.929688 94.789062 156.351562 C 86.140625 154.621094 79.222656 147.121094 79.222656 138.46875 C 79.222656 133.273438 81.527344 128.660156 84.988281 125.199219 C 85.5625 124.621094 85.5625 123.46875 84.988281 122.890625 C 84.410156 122.890625 84.410156 122.3125 83.835938 122.3125 C 53.855469 100.964844 25.609375 54.234375 22.726562 49.039062 C 22.726562 49.039062 22.148438 48.464844 22.148438 49.039062 C 12.925781 57.695312 11.773438 74.425781 21.574219 87.695312 C 27.914062 96.351562 42.328125 106.160156 56.164062 114.234375 C 56.164062 115.964844 55.585938 117.121094 55.585938 118.851562 C 26.183594 112.503906 7.738281 91.734375 4.855469 88.273438 L 4.277344 88.273438 C -0.910156 99.234375 3.703125 113.660156 14.078125 120.003906 C 23.304688 125.199219 38.292969 128.660156 56.164062 130.96875 C 56.164062 132.121094 56.738281 133.851562 56.738281 135.007812 C 29.644531 139.042969 8.3125 128.660156 4.855469 126.929688 C 4.855469 126.929688 4.277344 126.929688 4.277344 127.503906 C 3.125 139.042969 10.042969 148.277344 22.148438 150.582031 C 34.832031 151.738281 60.199219 145.390625 60.199219 145.390625 Z M 60.199219 145.390625 "/>
<path style=" stroke:none;fill-rule:nonzero;fill-opacity:1;" d="M 159.355469 183.46875 C 162.816406 182.316406 168.003906 183.46875 168.003906 188.085938 C 168.003906 189.238281 169.734375 189.238281 169.734375 188.085938 C 170.886719 180.585938 165.695312 178.277344 160.507812 179.429688 L 158.777344 172.507812 C 158.203125 170.777344 157.625 167.316406 159.933594 167.316406 C 161.085938 167.316406 160.507812 170.199219 160.507812 171.929688 C 160.507812 173.085938 161.085938 173.660156 161.660156 173.660156 C 162.238281 173.660156 162.816406 173.085938 163.390625 172.507812 C 166.273438 169.046875 166.851562 163.855469 163.390625 160.96875 C 160.507812 158.660156 153.589844 160.390625 151.285156 163.277344 C 150.707031 162.121094 149.554688 160.390625 148.980469 159.238281 C 148.402344 158.660156 148.402344 158.085938 148.980469 156.929688 C 149.554688 156.351562 150.707031 155.199219 150.707031 154.046875 C 150.707031 153.46875 150.132812 151.738281 148.402344 151.738281 C 146.671875 151.738281 144.941406 152.890625 144.941406 155.199219 C 144.941406 155.777344 144.941406 156.351562 145.519531 156.929688 L 140.332031 156.929688 L 159.355469 210.585938 C 164.542969 207.703125 168.578125 203.664062 168.578125 199.046875 C 168.578125 195.007812 162.816406 196.164062 159.933594 199.625 C 158.777344 194.433594 158.203125 189.816406 157.625 185.199219 C 157.625 184.625 158.203125 184.046875 159.355469 183.46875 Z M 159.355469 183.46875 "/>
<path style=" stroke:none;fill-rule:nonzero;fill-opacity:1;" d="M 133.988281 146.546875 C 133.414062 145.390625 131.683594 145.96875 132.261719 147.121094 L 136.296875 158.660156 C 132.835938 159.238281 127.648438 162.121094 127.648438 165.585938 C 127.648438 170.199219 135.144531 173.085938 139.753906 172.507812 C 139.753906 173.660156 139.753906 174.238281 140.332031 175.390625 C 138.601562 175.390625 135.71875 175.96875 134.566406 177.125 C 132.261719 174.816406 128.226562 174.238281 126.496094 175.390625 C 124.765625 176.546875 124.765625 179.429688 126.496094 181.738281 C 127.648438 183.46875 128.226562 185.199219 127.070312 187.507812 C 132.261719 187.507812 130.53125 180.007812 132.835938 180.007812 C 132.835938 181.160156 132.835938 182.894531 133.414062 184.625 C 133.988281 185.777344 133.988281 186.929688 132.835938 188.085938 C 131.105469 190.96875 128.226562 197.316406 128.800781 203.664062 C 127.070312 203.664062 125.917969 203.085938 126.496094 200.777344 C 126.496094 199.625 125.917969 199.046875 125.34375 200.203125 C 124.765625 201.355469 124.191406 203.664062 124.191406 204.816406 C 124.191406 210.007812 130.53125 211.164062 132.835938 210.007812 C 139.753906 216.933594 153.015625 215.203125 157.050781 212.894531 Z M 131.683594 201.933594 C 131.105469 199.046875 135.144531 194.433594 139.753906 189.816406 C 138.601562 192.699219 139.179688 197.894531 141.484375 200.203125 C 137.449219 199.625 133.414062 200.203125 131.683594 201.933594 Z M 131.683594 201.933594 "/>
<path style=" stroke:none;fill-rule:nonzero;fill-opacity:1;" d="M 49.246094 244.625 C 51.550781 245.203125 53.855469 245.203125 56.164062 245.203125 C 67.117188 245.203125 76.339844 240.011719 79.222656 233.085938 C 78.644531 229.625 78.070312 226.742188 78.070312 223.28125 C 78.070312 222.703125 78.070312 220.972656 77.492188 219.816406 C 76.339844 220.972656 75.1875 222.125 74.035156 222.703125 L 74.035156 223.28125 C 74.609375 229.050781 70 234.820312 63.082031 235.972656 L 60.773438 235.972656 C 55.585938 235.972656 50.972656 233.085938 49.820312 229.050781 C 49.820312 228.664062 49.628906 228.28125 49.246094 227.894531 L 48.667969 227.894531 C 46.363281 227.894531 44.632812 227.316406 42.902344 226.742188 C 43.480469 230.78125 44.632812 235.394531 46.363281 238.855469 C 47.515625 241.164062 48.09375 242.894531 49.246094 244.625 Z M 49.246094 244.625 "/>
<path style=" stroke:none;fill-rule:nonzero;fill-opacity:1;" d="M 86.71875 250.394531 C 84.410156 256.742188 76.917969 261.933594 68.269531 262.511719 C 76.917969 267.703125 86.140625 270.589844 91.328125 270.011719 C 91.328125 268.28125 93.636719 261.933594 95.363281 259.628906 C 91.90625 256.742188 89.023438 253.859375 86.71875 250.394531 Z M 86.71875 250.394531 "/>
<path style=" stroke:none;fill-rule:nonzero;fill-opacity:1;" d="M 243.523438 219.242188 C 240.640625 217.511719 237.183594 218.664062 235.453125 222.125 C 234.875 223.855469 233.148438 224.433594 231.417969 223.855469 L 234.875 216.933594 C 237.183594 216.933594 238.910156 215.777344 240.066406 213.472656 C 241.792969 210.585938 240.640625 207.125 237.757812 205.394531 C 234.875 203.664062 231.417969 204.816406 229.6875 207.703125 C 228.535156 210.007812 229.113281 212.316406 230.265625 214.046875 L 226.804688 221.546875 C 225.652344 220.394531 225.652344 218.664062 226.230469 217.511719 C 227.957031 214.625 226.804688 210.585938 223.921875 209.433594 L 204.898438 199.046875 L 203.746094 199.625 C 202.59375 202.507812 203.167969 205.394531 205.476562 207.125 C 204.898438 209.433594 205.476562 212.316406 207.78125 214.046875 C 207.203125 216.933594 208.359375 219.816406 210.664062 221.546875 L 214.121094 223.28125 L 213.546875 223.28125 C 211.816406 223.855469 211.238281 224.433594 210.085938 226.164062 C 208.359375 229.050781 210.664062 231.933594 214.121094 235.394531 C 212.96875 235.394531 212.394531 235.394531 211.238281 235.972656 C 205.476562 236.550781 189.910156 233.085938 191.640625 230.78125 C 208.359375 205.972656 195.675781 191.546875 180.109375 192.699219 L 180.109375 209.433594 C 180.109375 214.625 175.496094 219.242188 170.308594 219.242188 L 159.355469 219.242188 C 151.859375 219.242188 146.671875 227.316406 146.671875 227.316406 C 146.671875 227.316406 141.484375 219.242188 133.988281 219.242188 L 123.035156 219.242188 C 117.273438 219.242188 113.234375 215.203125 113.234375 209.433594 L 113.234375 192.699219 C 97.671875 192.125 84.988281 206.546875 101.707031 230.78125 C 102.859375 233.085938 89.023438 236.550781 80.953125 235.972656 C 76.917969 242.894531 67.691406 248.089844 56.164062 248.089844 C 54.433594 248.089844 53.28125 248.089844 51.550781 247.511719 C 55.011719 252.125 59.046875 256.164062 63.65625 259.050781 L 65.386719 259.050781 C 75.765625 259.050781 83.835938 253.28125 84.410156 246.359375 C 84.410156 245.78125 83.835938 245.78125 83.835938 245.203125 C 90.175781 241.164062 101.128906 238.28125 109.777344 238.28125 C 111.507812 238.28125 112.082031 236.550781 111.507812 235.394531 C 106.894531 224.433594 116.695312 216.933594 126.496094 223.28125 C 130.53125 226.164062 135.144531 231.355469 138.027344 240.585938 C 121.882812 244.625 102.28125 255.589844 98.246094 267.703125 C 96.519531 272.320312 101.707031 278.667969 108.046875 279.820312 L 108.625 279.820312 C 112.082031 261.933594 130.53125 248.664062 140.332031 246.359375 C 140.714844 247.125 140.90625 247.894531 140.90625 248.664062 C 130.53125 253.859375 120.152344 264.820312 117.273438 277.511719 C 116.117188 283.28125 122.460938 288.476562 127.648438 290.207031 C 127.648438 290.207031 128.226562 290.207031 128.226562 289.628906 C 129.378906 273.472656 136.296875 259.628906 142.636719 253.28125 C 142.636719 254.433594 143.214844 255.589844 143.214844 256.742188 C 143.214844 256.742188 136.871094 275.203125 136.871094 288.476562 C 136.871094 294.820312 146.097656 298.859375 147.25 299.4375 C 148.980469 298.859375 158.203125 294.246094 158.203125 288.476562 C 158.203125 275.203125 151.859375 256.742188 151.859375 256.742188 C 151.859375 255.589844 151.859375 254.433594 152.4375 253.28125 C 158.777344 259.628906 165.695312 273.472656 166.851562 289.628906 C 166.851562 289.628906 166.851562 290.207031 167.425781 290.207031 C 172.613281 288.476562 178.957031 283.28125 177.804688 277.511719 C 174.921875 264.820312 164.542969 253.859375 154.167969 248.664062 C 154.550781 247.894531 154.742188 247.125 154.742188 246.359375 C 164.542969 248.664062 182.992188 261.933594 186.449219 279.820312 L 187.027344 279.820312 C 193.367188 278.667969 198.558594 272.320312 196.828125 267.703125 C 192.792969 255.589844 172.613281 244.625 157.050781 240.585938 C 160.507812 231.355469 164.542969 226.164062 168.578125 223.28125 C 178.378906 216.933594 187.605469 225.011719 183.570312 235.394531 C 182.992188 237.125 183.570312 238.28125 185.296875 238.28125 C 192.214844 238.28125 200.285156 240.011719 206.628906 242.894531 C 206.628906 246.359375 208.359375 249.820312 211.238281 252.125 C 208.359375 252.703125 206.050781 253.859375 204.320312 256.164062 C 202.015625 259.050781 202.015625 263.664062 203.167969 269.433594 L 200.285156 278.667969 C 200.285156 279.242188 200.285156 279.820312 200.863281 279.820312 C 201.441406 279.820312 202.015625 279.820312 202.59375 279.242188 L 207.78125 271.167969 C 213.546875 268.859375 217.003906 265.972656 218.15625 262.511719 C 219.3125 259.628906 218.734375 257.320312 217.582031 254.433594 C 222.769531 256.164062 227.957031 254.433594 230.265625 250.394531 C 231.992188 247.511719 231.417969 244.050781 229.113281 241.164062 C 233.722656 241.742188 237.183594 242.320312 238.335938 239.433594 C 238.910156 238.28125 238.910156 236.550781 238.910156 235.394531 L 238.910156 234.820312 L 242.371094 236.550781 C 244.675781 237.703125 248.136719 237.125 249.867188 234.820312 C 252.171875 235.394531 255.054688 234.820312 256.207031 232.511719 C 259.089844 233.664062 261.972656 231.933594 263.125 229.625 L 263.703125 228.472656 Z M 204.898438 264.820312 C 204.898438 262.511719 205.476562 259.628906 206.628906 258.472656 C 207.203125 257.894531 208.359375 257.320312 208.933594 256.742188 Z M 213.546875 262.511719 C 212.96875 263.664062 211.238281 265.972656 209.511719 267.128906 L 213.546875 259.050781 Z M 219.886719 235.394531 C 219.886719 234.820312 219.3125 234.820312 219.886719 235.394531 C 217.582031 233.085938 212.96875 229.050781 213.546875 227.894531 C 213.546875 227.316406 214.121094 227.316406 214.699219 227.316406 C 217.003906 226.742188 220.464844 227.894531 223.347656 229.625 Z M 234.300781 238.855469 C 233.722656 240.011719 227.957031 238.855469 225.652344 238.28125 L 225.074219 238.28125 L 227.957031 231.933594 C 230.265625 233.664062 233.722656 235.972656 234.300781 237.703125 Z M 234.300781 238.855469 "/>
<path style=" stroke:none;fill-rule:nonzero;fill-opacity:1;" d="M 354.671875 116.140625 L 351.5 116.140625 L 350.695312 105.351562 C 350.347656 101.140625 350.175781 97.910156 350.117188 95.601562 L 344.988281 113.371094 L 341.929688 113.371094 L 336.511719 95.542969 C 336.511719 98.425781 336.339844 101.773438 336.050781 105.523438 L 335.246094 116.023438 L 332.132812 116.023438 L 334.089844 92.195312 L 338.53125 92.195312 L 343.546875 109.5625 L 348.332031 92.195312 L 352.769531 92.195312 L 354.730469 116.023438 Z M 354.671875 116.140625 "/>
<path style=" stroke:none;fill-rule:nonzero;fill-opacity:1;" d="M 374.273438 116.140625 L 371.101562 116.140625 L 371.101562 107.890625 C 371.101562 106.503906 371.101562 105.179688 371.21875 103.964844 C 371.332031 102.695312 371.390625 101.890625 371.449219 101.484375 L 363.78125 116.140625 L 360.035156 116.140625 L 360.035156 97.910156 L 363.203125 97.910156 L 363.203125 106.160156 C 363.203125 107.371094 363.203125 108.640625 363.089844 109.964844 C 362.972656 111.292969 362.914062 112.101562 362.859375 112.503906 L 370.410156 97.964844 L 374.273438 97.964844 L 374.273438 116.199219 Z M 374.273438 116.140625 "/>
<path style=" stroke:none;fill-rule:nonzero;fill-opacity:1;" d="M 391.566406 116.140625 L 391.566406 108.121094 L 384.015625 108.121094 L 384.015625 116.140625 L 380.84375 116.140625 L 380.84375 97.910156 L 384.015625 97.910156 L 384.015625 105.582031 L 391.566406 105.582031 L 391.566406 97.910156 L 394.738281 97.910156 L 394.738281 116.140625 Z M 391.566406 116.140625 "/>
<path style=" stroke:none;fill-rule:nonzero;fill-opacity:1;" d="M 415.550781 116.140625 L 412.378906 116.140625 L 412.378906 107.890625 C 412.378906 106.503906 412.378906 105.179688 412.496094 103.964844 C 412.609375 102.695312 412.667969 101.890625 412.726562 101.484375 L 405.058594 116.140625 L 401.3125 116.140625 L 401.3125 97.910156 L 404.480469 97.910156 L 404.480469 106.160156 C 404.480469 107.371094 404.480469 108.640625 404.367188 109.964844 C 404.25 111.292969 404.191406 112.101562 404.136719 112.503906 L 411.6875 97.964844 L 415.550781 97.964844 L 415.550781 116.199219 Z M 415.550781 116.140625 "/>
<path style=" stroke:none;fill-rule:nonzero;fill-opacity:1;" d="M 431.691406 97.964844 C 432.613281 98.253906 433.480469 98.773438 434.285156 99.464844 L 432.789062 101.484375 C 432.152344 101.023438 431.519531 100.675781 430.882812 100.445312 C 430.25 100.214844 429.617188 100.101562 428.867188 100.101562 C 427.367188 100.101562 426.214844 100.675781 425.40625 101.890625 C 424.601562 103.042969 424.199219 104.832031 424.199219 107.140625 C 424.199219 109.449219 424.601562 111.121094 425.40625 112.214844 C 426.214844 113.3125 427.367188 113.890625 428.867188 113.890625 C 429.558594 113.890625 430.25 113.773438 430.828125 113.542969 C 431.402344 113.3125 432.09375 112.964844 432.84375 112.503906 L 434.285156 114.582031 C 432.613281 115.910156 430.769531 116.601562 428.695312 116.601562 C 426.214844 116.601562 424.3125 115.792969 422.871094 114.121094 C 421.429688 112.449219 420.738281 110.140625 420.738281 107.253906 C 420.738281 105.292969 421.085938 103.621094 421.71875 102.175781 C 422.351562 100.734375 423.273438 99.582031 424.484375 98.773438 C 425.695312 97.964844 427.078125 97.5625 428.695312 97.5625 C 429.789062 97.5625 430.769531 97.734375 431.691406 98.023438 Z M 431.691406 97.964844 "/>
<path style=" stroke:none;fill-rule:nonzero;fill-opacity:1;" d="M 450.945312 97.910156 L 450.542969 100.503906 L 444.71875 100.503906 L 444.71875 116.140625 L 441.550781 116.140625 L 441.550781 100.503906 L 435.554688 100.503906 L 435.554688 97.910156 L 451.003906 97.910156 Z M 450.945312 97.910156 "/>
<path style=" stroke:none;fill-rule:nonzero;fill-opacity:1;" d="M 467.089844 108.121094 L 455.445312 108.121094 C 455.558594 110.140625 456.078125 111.582031 456.941406 112.5625 C 457.808594 113.484375 458.960938 114.003906 460.34375 114.003906 C 461.207031 114.003906 462.015625 113.890625 462.765625 113.601562 C 463.515625 113.3125 464.265625 112.964844 465.070312 112.390625 L 466.453125 114.292969 C 464.496094 115.792969 462.417969 116.601562 460.113281 116.601562 C 457.578125 116.601562 455.617188 115.792969 454.175781 114.121094 C 452.734375 112.449219 452.042969 110.199219 452.042969 107.253906 C 452.042969 105.351562 452.332031 103.675781 452.964844 102.234375 C 453.597656 100.792969 454.464844 99.640625 455.617188 98.773438 C 456.769531 97.910156 458.09375 97.503906 459.652344 97.503906 C 462.074219 97.503906 463.917969 98.3125 465.242188 99.871094 C 466.511719 101.484375 467.203125 103.675781 467.203125 106.503906 C 467.203125 107.023438 467.203125 107.601562 467.144531 108.121094 Z M 464.035156 105.582031 C 464.035156 103.792969 463.6875 102.410156 462.9375 101.484375 C 462.1875 100.5625 461.152344 100.042969 459.710938 100.042969 C 457.117188 100.042969 455.675781 101.945312 455.445312 105.8125 L 463.976562 105.8125 L 463.976562 105.582031 Z M 464.035156 105.582031 "/>
<path style=" stroke:none;fill-rule:nonzero;fill-opacity:1;" d="M 485.710938 99.984375 C 486.804688 101.660156 487.324219 103.964844 487.324219 107.023438 C 487.324219 109.910156 486.691406 112.214844 485.480469 113.949219 C 484.210938 115.679688 482.480469 116.601562 480.175781 116.601562 C 478.15625 116.601562 476.542969 115.910156 475.390625 114.523438 L 475.390625 123.179688 L 472.21875 123.582031 L 472.21875 97.964844 L 474.929688 97.964844 L 475.160156 100.445312 C 475.851562 99.523438 476.660156 98.832031 477.582031 98.3125 C 478.503906 97.792969 479.542969 97.5625 480.578125 97.5625 C 482.882812 97.5625 484.613281 98.371094 485.710938 100.042969 Z M 483.921875 107.023438 C 483.921875 102.351562 482.539062 100.042969 479.828125 100.042969 C 478.90625 100.042969 478.101562 100.332031 477.351562 100.851562 C 476.601562 101.371094 475.964844 102.0625 475.390625 102.871094 L 475.390625 111.753906 C 475.851562 112.449219 476.429688 113.023438 477.121094 113.429688 C 477.8125 113.832031 478.5625 114.003906 479.425781 114.003906 C 482.421875 114.003906 483.921875 111.699219 483.921875 107.023438 Z M 483.921875 107.023438 "/>
<path style=" stroke:none;fill-rule:nonzero;fill-opacity:1;" d="M 502.371094 97.964844 C 503.292969 98.253906 504.15625 98.773438 504.964844 99.464844 L 503.464844 101.484375 C 502.832031 101.023438 502.195312 100.675781 501.5625 100.445312 C 500.929688 100.214844 500.292969 100.101562 499.546875 100.101562 C 498.046875 100.101562 496.894531 100.675781 496.085938 101.890625 C 495.28125 103.042969 494.875 104.832031 494.875 107.140625 C 494.875 109.449219 495.28125 111.121094 496.085938 112.214844 C 496.894531 113.3125 498.046875 113.890625 499.546875 113.890625 C 500.238281 113.890625 500.929688 113.773438 501.503906 113.542969 C 502.082031 113.3125 502.773438 112.964844 503.523438 112.503906 L 504.964844 114.582031 C 503.292969 115.910156 501.449219 116.601562 499.371094 116.601562 C 496.894531 116.601562 494.992188 115.792969 493.550781 114.121094 C 492.109375 112.449219 491.417969 110.140625 491.417969 107.253906 C 491.417969 105.292969 491.761719 103.621094 492.398438 102.175781 C 493.03125 100.734375 493.953125 99.582031 495.164062 98.773438 C 496.375 97.964844 497.757812 97.5625 499.371094 97.5625 C 500.46875 97.5625 501.449219 97.734375 502.371094 98.023438 Z M 502.371094 97.964844 "/>
<path style=" stroke:none;fill-rule:nonzero;fill-opacity:1;" d="M 521.625 97.910156 L 521.222656 100.503906 L 515.398438 100.503906 L 515.398438 116.140625 L 512.226562 116.140625 L 512.226562 100.503906 L 506.234375 100.503906 L 506.234375 97.910156 L 521.683594 97.910156 Z M 521.625 97.910156 "/>
<path style=" stroke:none;fill-rule:nonzero;fill-opacity:1;" d="M 539.152344 110.542969 C 539.152344 112.449219 538.457031 113.890625 537.074219 114.8125 C 535.691406 115.734375 533.847656 116.199219 531.484375 116.199219 L 524.910156 116.199219 L 524.910156 98.195312 C 527.042969 97.734375 529.0625 97.5625 530.90625 97.5625 C 533.15625 97.5625 534.941406 97.964844 536.269531 98.832031 C 537.59375 99.695312 538.226562 100.910156 538.226562 102.523438 C 538.226562 103.5625 537.941406 104.429688 537.304688 105.0625 C 536.671875 105.695312 535.75 106.160156 534.539062 106.332031 C 537.652344 106.621094 539.152344 108.0625 539.152344 110.601562 Z M 528.082031 100.160156 L 528.082031 105.292969 L 531.484375 105.292969 C 532.578125 105.292969 533.441406 105.0625 534.019531 104.660156 C 534.597656 104.253906 534.941406 103.5625 534.941406 102.523438 C 534.941406 101.601562 534.597656 100.910156 533.960938 100.503906 C 533.269531 100.101562 532.289062 99.871094 530.90625 99.871094 C 529.925781 99.871094 529.003906 99.925781 528.082031 100.101562 Z M 534.652344 112.964844 C 535.402344 112.503906 535.808594 111.699219 535.808594 110.484375 C 535.808594 109.503906 535.460938 108.753906 534.828125 108.351562 C 534.191406 107.949219 533.097656 107.714844 531.539062 107.714844 L 528.082031 107.714844 L 528.082031 113.714844 L 531.484375 113.714844 C 532.867188 113.714844 533.90625 113.484375 534.652344 113.023438 Z M 534.652344 112.964844 "/>
<path style=" stroke:none;fill-rule:nonzero;fill-opacity:1;" d="M 557.078125 100.042969 C 558.519531 101.773438 559.210938 104.082031 559.210938 107.023438 C 559.210938 108.929688 558.867188 110.601562 558.234375 112.042969 C 557.597656 113.484375 556.675781 114.582031 555.40625 115.390625 C 554.195312 116.199219 552.753906 116.601562 551.027344 116.601562 C 548.488281 116.601562 546.472656 115.734375 545.03125 114.0625 C 543.589844 112.390625 542.898438 110.023438 542.898438 107.082031 C 542.898438 105.179688 543.242188 103.503906 543.878906 102.0625 C 544.511719 100.621094 545.433594 99.523438 546.703125 98.714844 C 547.914062 97.910156 549.414062 97.503906 551.085938 97.503906 C 553.621094 97.503906 555.636719 98.371094 557.078125 100.042969 Z M 546.355469 107.023438 C 546.355469 111.640625 547.914062 114.003906 551.085938 114.003906 C 554.253906 114.003906 555.8125 111.699219 555.8125 107.023438 C 555.8125 102.351562 554.253906 100.042969 551.140625 100.042969 C 548.027344 100.042969 546.414062 102.351562 546.414062 107.023438 Z M 546.355469 107.023438 "/>
<path style=" stroke:none;fill-rule:nonzero;fill-opacity:1;" d="M 342.738281 141.410156 C 344.007812 143.027344 344.699219 145.332031 344.699219 148.449219 C 344.699219 151.566406 344.007812 153.816406 342.679688 155.546875 C 341.355469 157.277344 339.335938 158.085938 336.742188 158.085938 C 334.496094 158.085938 332.535156 157.390625 330.976562 156.066406 L 332.476562 154.046875 C 333.167969 154.566406 333.804688 154.910156 334.4375 155.140625 C 335.070312 155.371094 335.820312 155.488281 336.683594 155.488281 C 338.011719 155.488281 339.105469 155.027344 339.914062 154.046875 C 340.722656 153.066406 341.183594 151.566406 341.296875 149.546875 L 333.859375 149.546875 L 333.859375 147.121094 L 341.296875 147.121094 C 341.183594 145.21875 340.777344 143.832031 340.085938 142.910156 C 339.394531 141.988281 338.472656 141.527344 337.203125 141.527344 C 336.398438 141.527344 335.648438 141.640625 334.957031 141.871094 C 334.265625 142.101562 333.574219 142.449219 332.878906 142.910156 L 331.4375 140.949219 C 332.304688 140.257812 333.226562 139.792969 334.148438 139.449219 C 335.128906 139.101562 336.167969 138.988281 337.320312 138.988281 C 339.625 138.988281 341.414062 139.792969 342.679688 141.351562 Z M 342.738281 141.410156 "/>
<path style=" stroke:none;fill-rule:nonzero;fill-opacity:1;" d="M 363.550781 139.449219 L 358.015625 147.871094 L 364.183594 157.679688 L 360.4375 157.679688 L 355.363281 149.257812 L 353.058594 149.257812 L 353.058594 157.679688 L 349.886719 157.679688 L 349.886719 139.449219 L 353.058594 139.449219 L 353.058594 146.777344 L 355.421875 146.777344 L 360.035156 139.449219 Z M 363.550781 139.449219 "/>
<path style=" stroke:none;fill-rule:nonzero;fill-opacity:1;" d="M 380.382812 141.582031 C 381.824219 143.3125 382.515625 145.621094 382.515625 148.5625 C 382.515625 150.46875 382.171875 152.140625 381.535156 153.585938 C 380.902344 155.027344 379.980469 156.121094 378.710938 156.929688 C 377.445312 157.738281 376.058594 158.140625 374.332031 158.140625 C 371.792969 158.140625 369.777344 157.277344 368.335938 155.601562 C 366.894531 153.929688 366.203125 151.566406 366.203125 148.621094 C 366.203125 146.71875 366.546875 145.046875 367.183594 143.601562 C 367.816406 142.160156 368.738281 141.0625 370.007812 140.257812 C 371.21875 139.449219 372.714844 139.042969 374.386719 139.042969 C 376.925781 139.042969 378.941406 139.910156 380.382812 141.582031 Z M 369.660156 148.5625 C 369.660156 153.179688 371.21875 155.546875 374.386719 155.546875 C 377.558594 155.546875 379.117188 153.238281 379.117188 148.5625 C 379.117188 143.890625 377.558594 141.582031 374.445312 141.582031 C 371.332031 141.582031 369.71875 143.890625 369.71875 148.5625 Z M 369.660156 148.5625 "/>
<path style=" stroke:none;fill-rule:nonzero;fill-opacity:1;" d="M 398.484375 157.679688 L 398.484375 149.660156 L 390.933594 149.660156 L 390.933594 157.679688 L 387.761719 157.679688 L 387.761719 139.449219 L 390.933594 139.449219 L 390.933594 147.121094 L 398.484375 147.121094 L 398.484375 139.449219 L 401.65625 139.449219 L 401.65625 157.679688 Z M 398.484375 157.679688 "/>
<path style=" stroke:none;fill-rule:nonzero;fill-opacity:1;" d="M 421.085938 141.582031 C 422.527344 143.3125 423.21875 145.621094 423.21875 148.5625 C 423.21875 150.46875 422.871094 152.140625 422.238281 153.585938 C 421.601562 155.027344 420.679688 156.121094 419.414062 156.929688 C 418.144531 157.738281 416.761719 158.140625 415.03125 158.140625 C 412.496094 158.140625 410.476562 157.277344 409.035156 155.601562 C 407.59375 153.929688 406.902344 151.566406 406.902344 148.621094 C 406.902344 146.71875 407.25 145.046875 407.882812 143.601562 C 408.515625 142.160156 409.4375 141.0625 410.707031 140.257812 C 411.917969 139.449219 413.417969 139.042969 415.089844 139.042969 C 417.625 139.042969 419.644531 139.910156 421.085938 141.582031 Z M 410.363281 148.5625 C 410.363281 153.179688 411.917969 155.546875 415.089844 155.546875 C 418.257812 155.546875 419.816406 153.238281 419.816406 148.5625 C 419.816406 143.890625 418.257812 141.582031 415.144531 141.582031 C 412.035156 141.582031 410.417969 143.890625 410.417969 148.5625 Z M 410.363281 148.5625 "/>
<path style=" stroke:none;fill-rule:nonzero;fill-opacity:1;" d="M 446.335938 157.679688 L 443.222656 157.679688 L 442.414062 149.082031 C 442.300781 148.160156 442.242188 147.179688 442.242188 146.082031 C 442.242188 144.988281 442.242188 143.777344 442.242188 142.5625 L 438.089844 155.71875 L 435.09375 155.71875 L 431.230469 142.621094 C 431.230469 145.679688 431.230469 147.8125 431.117188 149.082031 L 430.480469 157.738281 L 427.425781 157.738281 L 429.039062 139.507812 L 433.132812 139.507812 L 436.707031 152.546875 L 440.628906 139.507812 L 444.835938 139.507812 L 446.507812 157.738281 Z M 446.335938 157.679688 "/>
<path style=" stroke:none;fill-rule:nonzero;fill-opacity:1;" d="M 465.878906 157.679688 L 462.707031 157.679688 L 462.707031 149.429688 C 462.707031 148.046875 462.707031 146.71875 462.824219 145.507812 C 462.9375 144.238281 462.996094 143.429688 463.054688 143.027344 L 455.386719 157.679688 L 451.636719 157.679688 L 451.636719 139.449219 L 454.808594 139.449219 L 454.808594 147.699219 C 454.808594 148.910156 454.808594 150.179688 454.695312 151.507812 C 454.578125 152.832031 454.519531 153.640625 454.464844 154.046875 L 462.015625 139.507812 L 465.878906 139.507812 L 465.878906 157.738281 Z M 465.878906 157.679688 "/>
<path style=" stroke:none;fill-rule:nonzero;fill-opacity:1;" d="M 484.960938 139.449219 L 484.960938 157.679688 L 481.789062 157.679688 L 481.789062 150.066406 C 481.097656 150.699219 480.289062 151.160156 479.308594 151.507812 C 478.332031 151.851562 477.351562 152.027344 476.3125 152.027344 C 474.582031 152.027344 473.257812 151.566406 472.390625 150.640625 C 471.527344 149.71875 471.066406 148.390625 471.066406 146.660156 L 471.066406 139.449219 L 474.238281 139.449219 L 474.238281 146.3125 C 474.238281 147.46875 474.46875 148.332031 474.929688 148.851562 C 475.390625 149.371094 476.140625 149.660156 477.121094 149.660156 C 477.925781 149.660156 478.792969 149.488281 479.65625 149.082031 C 480.519531 148.738281 481.210938 148.21875 481.730469 147.640625 L 481.730469 139.449219 Z M 484.960938 139.449219 "/>
<path style=" stroke:none;fill-rule:nonzero;fill-opacity:1;" d="M 505.195312 149.660156 L 493.550781 149.660156 C 493.664062 151.679688 494.183594 153.121094 495.046875 154.101562 C 495.914062 155.027344 497.066406 155.546875 498.449219 155.546875 C 499.316406 155.546875 500.121094 155.429688 500.871094 155.140625 C 501.621094 154.910156 502.371094 154.507812 503.175781 153.929688 L 504.5625 155.835938 C 502.601562 157.335938 500.527344 158.140625 498.21875 158.140625 C 495.683594 158.140625 493.722656 157.335938 492.28125 155.660156 C 490.839844 153.988281 490.148438 151.738281 490.148438 148.796875 C 490.148438 146.890625 490.4375 145.21875 491.070312 143.777344 C 491.703125 142.332031 492.570312 141.179688 493.722656 140.3125 C 494.875 139.449219 496.203125 139.042969 497.757812 139.042969 C 500.179688 139.042969 502.023438 139.851562 503.351562 141.410156 C 504.617188 143.027344 505.308594 145.21875 505.308594 148.046875 C 505.308594 148.5625 505.308594 149.140625 505.253906 149.660156 Z M 502.140625 147.121094 C 502.140625 145.332031 501.792969 143.949219 501.042969 143.027344 C 500.292969 142.101562 499.257812 141.582031 497.816406 141.582031 C 495.222656 141.582031 493.78125 143.488281 493.550781 147.351562 L 502.082031 147.351562 L 502.082031 147.121094 Z M 502.140625 147.121094 "/>
<path style=" stroke:none;fill-rule:nonzero;fill-opacity:1;" d="M 520.011719 139.507812 C 520.933594 139.792969 521.796875 140.3125 522.605469 141.007812 L 521.105469 143.027344 C 520.472656 142.5625 519.839844 142.21875 519.203125 141.988281 C 518.570312 141.757812 517.9375 141.640625 517.1875 141.640625 C 515.6875 141.640625 514.535156 142.21875 513.726562 143.429688 C 512.921875 144.582031 512.515625 146.371094 512.515625 148.679688 C 512.515625 150.988281 512.921875 152.660156 513.726562 153.757812 C 514.535156 154.851562 515.6875 155.429688 517.1875 155.429688 C 517.878906 155.429688 518.570312 155.316406 519.144531 155.085938 C 519.722656 154.851562 520.414062 154.507812 521.164062 154.046875 L 522.605469 156.121094 C 520.933594 157.449219 519.089844 158.140625 517.011719 158.140625 C 514.535156 158.140625 512.632812 157.335938 511.191406 155.660156 C 509.75 153.988281 509.058594 151.679688 509.058594 148.796875 C 509.058594 146.832031 509.402344 145.160156 510.039062 143.71875 C 510.671875 142.277344 511.59375 141.121094 512.804688 140.3125 C 514.015625 139.507812 515.398438 139.101562 517.011719 139.101562 C 518.109375 139.101562 519.089844 139.277344 520.011719 139.5625 Z M 520.011719 139.507812 "/>
<path style=" stroke:none;fill-rule:nonzero;fill-opacity:1;" d="M 540.589844 139.449219 L 535.058594 147.871094 L 541.226562 157.679688 L 537.480469 157.679688 L 532.40625 149.257812 L 530.097656 149.257812 L 530.097656 157.679688 L 526.929688 157.679688 L 526.929688 139.449219 L 530.097656 139.449219 L 530.097656 146.777344 L 532.464844 146.777344 L 537.074219 139.449219 Z M 540.589844 139.449219 "/>
<path style=" stroke:none;fill-rule:nonzero;fill-opacity:1;" d="M 557.367188 141.582031 C 558.808594 143.3125 559.5 145.621094 559.5 148.5625 C 559.5 150.46875 559.15625 152.140625 558.519531 153.585938 C 557.886719 155.027344 556.964844 156.121094 555.695312 156.929688 C 554.425781 157.738281 553.042969 158.140625 551.316406 158.140625 C 548.777344 158.140625 546.761719 157.277344 545.320312 155.601562 C 543.878906 153.929688 543.1875 151.566406 543.1875 148.621094 C 543.1875 146.71875 543.53125 145.046875 544.167969 143.601562 C 544.800781 142.160156 545.722656 141.0625 546.992188 140.257812 C 548.203125 139.449219 549.699219 139.042969 551.371094 139.042969 C 553.910156 139.042969 555.925781 139.910156 557.367188 141.582031 Z M 546.644531 148.5625 C 546.644531 153.179688 548.203125 155.546875 551.371094 155.546875 C 554.542969 155.546875 556.097656 153.238281 556.097656 148.5625 C 556.097656 143.890625 554.542969 141.582031 551.429688 141.582031 C 548.316406 141.582031 546.703125 143.890625 546.703125 148.5625 Z M 546.644531 148.5625 "/>
<path style=" stroke:none;fill-rule:nonzero;fill-opacity:1;" d="M 567.917969 157.679688 L 564.746094 157.679688 L 564.746094 139.449219 L 576.105469 139.449219 L 575.699219 142.101562 L 567.917969 142.101562 L 567.917969 157.738281 Z M 567.917969 157.679688 "/>
<path style=" stroke:none;fill-rule:nonzero;fill-opacity:1;" d="M 591.554688 141.582031 C 592.996094 143.3125 593.6875 145.621094 593.6875 148.5625 C 593.6875 150.46875 593.339844 152.140625 592.707031 153.585938 C 592.074219 155.027344 591.152344 156.121094 589.882812 156.929688 C 588.613281 157.738281 587.230469 158.140625 585.5 158.140625 C 582.964844 158.140625 580.945312 157.277344 579.503906 155.601562 C 578.0625 153.929688 577.371094 151.566406 577.371094 148.621094 C 577.371094 146.71875 577.71875 145.046875 578.351562 143.601562 C 578.984375 142.160156 579.910156 141.0625 581.175781 140.257812 C 582.386719 139.449219 583.886719 139.042969 585.558594 139.042969 C 588.09375 139.042969 590.113281 139.910156 591.554688 141.582031 Z M 580.832031 148.5625 C 580.832031 153.179688 582.386719 155.546875 585.558594 155.546875 C 588.730469 155.546875 590.285156 153.238281 590.285156 148.5625 C 590.285156 143.890625 588.730469 141.582031 585.617188 141.582031 C 582.503906 141.582031 580.890625 143.890625 580.890625 148.5625 Z M 580.832031 148.5625 "/>
<path style=" stroke:none;fill-rule:nonzero;fill-opacity:1;" d="M 621.589844 141.527344 C 622.683594 143.199219 623.203125 145.507812 623.203125 148.5625 C 623.203125 151.449219 622.570312 153.757812 621.359375 155.488281 C 620.089844 157.21875 618.359375 158.140625 616.054688 158.140625 C 614.039062 158.140625 612.421875 157.449219 611.269531 156.066406 L 611.269531 164.71875 L 608.097656 165.121094 L 608.097656 139.507812 L 610.808594 139.507812 L 611.039062 141.988281 C 611.730469 141.0625 612.539062 140.371094 613.460938 139.851562 C 614.382812 139.332031 615.421875 139.101562 616.457031 139.101562 C 618.765625 139.101562 620.492188 139.910156 621.589844 141.582031 Z M 619.800781 148.5625 C 619.800781 143.890625 618.417969 141.582031 615.710938 141.582031 C 614.785156 141.582031 613.980469 141.871094 613.230469 142.390625 C 612.480469 142.910156 611.847656 143.601562 611.269531 144.410156 L 611.269531 153.296875 C 611.730469 153.988281 612.308594 154.566406 613 154.96875 C 613.691406 155.371094 614.441406 155.546875 615.304688 155.546875 C 618.304688 155.546875 619.800781 153.238281 619.800781 148.5625 Z M 619.800781 148.5625 "/>
<path style=" stroke:none;fill-rule:nonzero;fill-opacity:1;" d="M 640.960938 155.085938 C 641.191406 155.429688 641.59375 155.71875 642.113281 155.890625 L 641.363281 158.085938 C 640.441406 157.96875 639.632812 157.679688 639.058594 157.277344 C 638.480469 156.871094 638.078125 156.238281 637.789062 155.316406 C 636.578125 157.160156 634.734375 158.027344 632.371094 158.027344 C 630.582031 158.027344 629.140625 157.507812 628.105469 156.527344 C 627.066406 155.488281 626.546875 154.160156 626.546875 152.546875 C 626.546875 150.582031 627.238281 149.140625 628.621094 148.101562 C 630.007812 147.0625 631.964844 146.546875 634.558594 146.546875 L 637.386719 146.546875 L 637.386719 145.21875 C 637.386719 143.949219 637.097656 143.027344 636.460938 142.449219 C 635.828125 141.871094 634.90625 141.640625 633.582031 141.640625 C 632.253906 141.640625 630.582031 141.988281 628.679688 142.621094 L 627.875 140.3125 C 630.121094 139.507812 632.253906 139.042969 634.15625 139.042969 C 636.289062 139.042969 637.902344 139.5625 638.941406 140.601562 C 639.980469 141.640625 640.554688 143.140625 640.554688 145.101562 L 640.554688 153.46875 C 640.554688 154.21875 640.671875 154.738281 640.960938 155.085938 Z M 637.386719 152.890625 L 637.386719 148.679688 L 635.023438 148.679688 C 631.679688 148.679688 629.949219 149.949219 629.949219 152.429688 C 629.949219 153.527344 630.238281 154.335938 630.753906 154.910156 C 631.273438 155.488281 632.082031 155.71875 633.121094 155.71875 C 634.964844 155.71875 636.347656 154.796875 637.386719 152.890625 Z M 637.386719 152.890625 "/>
<path style=" stroke:none;fill-rule:nonzero;fill-opacity:1;" d="M 654.851562 139.5625 C 655.832031 139.96875 656.640625 140.488281 657.273438 141.238281 C 657.910156 141.988281 658.195312 142.851562 658.195312 143.890625 C 658.195312 144.929688 657.910156 145.738281 657.332031 146.371094 C 656.753906 147.007812 655.832031 147.527344 654.566406 147.871094 C 656.0625 148.101562 657.214844 148.621094 658.023438 149.3125 C 658.832031 150.007812 659.175781 150.988281 659.175781 152.316406 C 659.175781 154.21875 658.425781 155.660156 656.984375 156.640625 C 655.542969 157.621094 653.640625 158.085938 651.394531 158.085938 C 648.628906 158.085938 646.320312 157.335938 644.359375 155.777344 L 646.03125 153.816406 C 646.839844 154.390625 647.648438 154.796875 648.453125 155.085938 C 649.261719 155.371094 650.242188 155.488281 651.277344 155.488281 C 654.277344 155.488281 655.71875 154.390625 655.71875 152.257812 C 655.71875 151.21875 655.3125 150.46875 654.449219 150.007812 C 653.585938 149.601562 652.433594 149.371094 650.933594 149.371094 L 648.511719 149.371094 L 648.742188 146.890625 L 650.585938 146.890625 C 651.855469 146.890625 652.894531 146.660156 653.699219 146.199219 C 654.507812 145.738281 654.851562 145.046875 654.851562 144.0625 C 654.851562 143.140625 654.507812 142.507812 653.875 142.101562 C 653.179688 141.699219 652.316406 141.527344 651.222656 141.527344 C 650.296875 141.527344 649.433594 141.640625 648.742188 141.871094 C 647.992188 142.101562 647.300781 142.507812 646.550781 142.96875 L 645.050781 141.0625 C 645.976562 140.371094 646.953125 139.851562 648.050781 139.507812 C 649.089844 139.160156 650.296875 138.988281 651.625 138.988281 C 652.777344 138.988281 653.875 139.160156 654.851562 139.5625 Z M 654.851562 139.5625 "/>
<path style=" stroke:none;fill-rule:nonzero;fill-opacity:1;" d="M 678.664062 152.082031 C 678.664062 153.988281 677.96875 155.429688 676.585938 156.351562 C 675.203125 157.277344 673.359375 157.738281 670.996094 157.738281 L 664.421875 157.738281 L 664.421875 139.738281 C 666.554688 139.277344 668.574219 139.101562 670.417969 139.101562 C 672.667969 139.101562 674.453125 139.507812 675.78125 140.371094 C 677.105469 141.238281 677.738281 142.449219 677.738281 144.0625 C 677.738281 145.101562 677.453125 145.96875 676.816406 146.601562 C 676.183594 147.238281 675.261719 147.699219 674.050781 147.871094 C 677.164062 148.160156 678.664062 149.601562 678.664062 152.140625 Z M 667.59375 141.699219 L 667.59375 146.832031 L 670.996094 146.832031 C 672.089844 146.832031 672.953125 146.601562 673.53125 146.199219 C 674.109375 145.796875 674.453125 145.101562 674.453125 144.0625 C 674.453125 143.140625 674.109375 142.449219 673.472656 142.046875 C 672.78125 141.640625 671.800781 141.410156 670.417969 141.410156 C 669.4375 141.410156 668.515625 141.46875 667.59375 141.640625 Z M 674.164062 154.507812 C 674.914062 154.046875 675.320312 153.238281 675.320312 152.027344 C 675.320312 151.046875 674.972656 150.296875 674.339844 149.890625 C 673.703125 149.488281 672.609375 149.257812 671.050781 149.257812 L 667.59375 149.257812 L 667.59375 155.257812 L 670.996094 155.257812 C 672.378906 155.257812 673.417969 155.027344 674.164062 154.566406 Z M 674.164062 154.507812 "/>
<path style=" stroke:none;fill-rule:nonzero;fill-opacity:1;" d="M 698.089844 157.679688 L 694.917969 157.679688 L 694.917969 149.429688 C 694.917969 148.046875 694.917969 146.71875 695.035156 145.507812 C 695.148438 144.238281 695.207031 143.429688 695.265625 143.027344 L 687.597656 157.679688 L 683.851562 157.679688 L 683.851562 139.449219 L 687.023438 139.449219 L 687.023438 147.699219 C 687.023438 148.910156 687.023438 150.179688 686.90625 151.507812 C 686.789062 152.832031 686.734375 153.640625 686.675781 154.046875 L 694.226562 139.507812 L 698.089844 139.507812 L 698.089844 157.738281 Z M 698.089844 157.679688 "/>
<path style=" stroke:none;fill-rule:nonzero;fill-opacity:1;" d="M 717 139.449219 L 716.597656 142.046875 L 710.773438 142.046875 L 710.773438 157.679688 L 707.601562 157.679688 L 707.601562 142.046875 L 701.605469 142.046875 L 701.605469 139.449219 L 717.058594 139.449219 Z M 717 139.449219 "/>
<path style=" stroke:none;fill-rule:nonzero;fill-opacity:1;" d="M 734.46875 157.679688 L 731.296875 157.679688 L 731.296875 149.429688 C 731.296875 148.046875 731.296875 146.71875 731.410156 145.507812 C 731.527344 144.238281 731.585938 143.429688 731.640625 143.027344 L 723.976562 157.679688 L 720.226562 157.679688 L 720.226562 139.449219 L 723.398438 139.449219 L 723.398438 147.699219 C 723.398438 148.910156 723.398438 150.179688 723.28125 151.507812 C 723.167969 152.832031 723.109375 153.640625 723.050781 154.046875 L 730.605469 139.507812 L 734.46875 139.507812 L 734.46875 157.738281 Z M 734.46875 157.679688 "/>
<path style=" stroke:none;fill-rule:nonzero;fill-opacity:1;" d="M 753.492188 139.449219 L 753.492188 157.679688 L 750.320312 157.679688 L 750.320312 150.699219 L 746.34375 150.699219 L 742.480469 157.679688 L 738.90625 157.679688 L 743.289062 149.949219 C 741.15625 148.910156 740.058594 147.296875 740.058594 144.988281 C 740.058594 143.199219 740.691406 141.8125 742.019531 140.832031 C 743.289062 139.851562 745.132812 139.390625 747.4375 139.390625 L 753.492188 139.390625 Z M 750.320312 148.277344 L 750.320312 141.929688 L 747.378906 141.929688 C 746.054688 141.929688 745.074219 142.160156 744.441406 142.679688 C 743.804688 143.199219 743.460938 143.949219 743.460938 145.046875 C 743.460938 146.199219 743.75 147.007812 744.382812 147.527344 C 745.015625 148.046875 745.996094 148.277344 747.324219 148.277344 Z M 750.320312 148.277344 "/>
<path style=" stroke:none;fill-rule:nonzero;fill-opacity:1;" d="M 346.429688 177.238281 C 348.042969 178.449219 348.851562 180.296875 348.851562 182.777344 C 348.851562 185.375 347.984375 187.335938 346.3125 188.605469 C 344.640625 189.875 342.394531 190.507812 339.625 190.507812 L 336.628906 190.507812 L 336.628906 199.277344 L 333.34375 199.277344 L 333.34375 175.449219 L 339.625 175.449219 C 342.566406 175.449219 344.871094 176.085938 346.484375 177.296875 Z M 343.835938 186.757812 C 344.8125 186.007812 345.332031 184.679688 345.332031 182.777344 C 345.332031 181.046875 344.8125 179.835938 343.835938 179.085938 C 342.855469 178.335938 341.414062 177.929688 339.511719 177.929688 L 336.570312 177.929688 L 336.570312 187.855469 L 339.453125 187.855469 C 341.355469 187.855469 342.796875 187.507812 343.835938 186.757812 Z M 343.835938 186.757812 "/>
<path style=" stroke:none;fill-rule:nonzero;fill-opacity:1;" d="M 365.050781 183.125 C 366.492188 184.855469 367.183594 187.164062 367.183594 190.105469 C 367.183594 192.007812 366.835938 193.683594 366.203125 195.125 C 365.566406 196.566406 364.644531 197.664062 363.378906 198.46875 C 362.167969 199.277344 360.726562 199.683594 358.996094 199.683594 C 356.460938 199.683594 354.441406 198.816406 353 197.144531 C 351.558594 195.46875 350.867188 193.105469 350.867188 190.164062 C 350.867188 188.257812 351.214844 186.585938 351.847656 185.144531 C 352.480469 183.699219 353.402344 182.605469 354.671875 181.796875 C 355.941406 180.988281 357.382812 180.585938 359.054688 180.585938 C 361.589844 180.585938 363.609375 181.449219 365.050781 183.125 Z M 354.328125 190.105469 C 354.328125 194.71875 355.882812 197.085938 359.054688 197.085938 C 362.222656 197.085938 363.78125 194.777344 363.78125 190.105469 C 363.78125 185.429688 362.222656 183.125 359.109375 183.125 C 356 183.125 354.382812 185.429688 354.382812 190.105469 Z M 354.328125 190.105469 "/>
<path style=" stroke:none;fill-rule:nonzero;fill-opacity:1;" d="M 382.054688 181.046875 C 382.976562 181.335938 383.84375 181.855469 384.648438 182.546875 L 383.152344 184.566406 C 382.515625 184.105469 381.882812 183.757812 381.25 183.527344 C 380.613281 183.296875 379.980469 183.179688 379.230469 183.179688 C 377.730469 183.179688 376.578125 183.757812 375.773438 184.96875 C 374.964844 186.125 374.5625 187.914062 374.5625 190.21875 C 374.5625 192.527344 374.964844 194.257812 375.773438 195.296875 C 376.578125 196.394531 377.730469 196.96875 379.230469 196.96875 C 379.921875 196.96875 380.613281 196.855469 381.191406 196.625 C 381.765625 196.394531 382.460938 196.046875 383.207031 195.585938 L 384.648438 197.664062 C 382.976562 198.988281 381.132812 199.683594 379.058594 199.683594 C 376.578125 199.683594 374.617188 198.875 373.234375 197.203125 C 371.851562 195.527344 371.101562 193.21875 371.101562 190.335938 C 371.101562 188.375 371.449219 186.699219 372.082031 185.257812 C 372.714844 183.816406 373.640625 182.664062 374.847656 181.855469 C 376.058594 181.046875 377.445312 180.644531 379.117188 180.644531 C 380.210938 180.644531 381.191406 180.816406 382.113281 181.105469 Z M 382.054688 181.046875 "/>
<path style=" stroke:none;fill-rule:nonzero;fill-opacity:1;" d="M 397.910156 181.046875 C 398.832031 181.335938 399.695312 181.855469 400.503906 182.546875 L 399.003906 184.566406 C 398.371094 184.105469 397.738281 183.757812 397.101562 183.527344 C 396.46875 183.296875 395.832031 183.179688 395.085938 183.179688 C 393.585938 183.179688 392.433594 183.757812 391.625 184.96875 C 390.820312 186.125 390.414062 187.914062 390.414062 190.21875 C 390.414062 192.527344 390.820312 194.257812 391.625 195.296875 C 392.433594 196.394531 393.585938 196.96875 395.085938 196.96875 C 395.777344 196.96875 396.46875 196.855469 397.042969 196.625 C 397.621094 196.394531 398.3125 196.046875 399.0625 195.585938 L 400.503906 197.664062 C 398.832031 198.988281 396.988281 199.683594 394.910156 199.683594 C 392.433594 199.683594 390.472656 198.875 389.089844 197.203125 C 387.707031 195.527344 386.957031 193.21875 386.957031 190.335938 C 386.957031 188.375 387.300781 186.699219 387.9375 185.257812 C 388.570312 183.816406 389.492188 182.664062 390.703125 181.855469 C 391.914062 181.046875 393.296875 180.644531 394.96875 180.644531 C 396.066406 180.644531 397.042969 180.816406 397.96875 181.105469 Z M 397.910156 181.046875 "/>
<path style=" stroke:none;fill-rule:nonzero;fill-opacity:1;" d="M 419.007812 199.21875 L 415.839844 199.21875 L 415.839844 190.96875 C 415.839844 189.585938 415.839844 188.257812 415.953125 187.046875 C 416.070312 185.777344 416.125 184.96875 416.183594 184.566406 L 408.515625 199.21875 L 404.769531 199.21875 L 404.769531 180.988281 L 407.941406 180.988281 L 407.941406 189.238281 C 407.941406 190.449219 407.941406 191.71875 407.824219 193.046875 C 407.710938 194.375 407.652344 195.183594 407.59375 195.527344 L 415.144531 180.988281 L 419.007812 180.988281 Z M 419.007812 199.21875 "/>
<path style=" stroke:none;fill-rule:nonzero;fill-opacity:1;" d="M 439.761719 199.21875 L 436.59375 199.21875 L 436.59375 190.96875 C 436.59375 189.585938 436.59375 188.257812 436.707031 187.046875 C 436.824219 185.777344 436.878906 184.96875 436.9375 184.566406 L 429.269531 199.21875 L 425.523438 199.21875 L 425.523438 180.988281 L 428.695312 180.988281 L 428.695312 189.238281 C 428.695312 190.449219 428.695312 191.71875 428.578125 193.046875 C 428.464844 194.375 428.40625 195.183594 428.347656 195.527344 L 435.898438 180.988281 L 439.761719 180.988281 Z M 429.039062 175.855469 C 428.058594 175.105469 427.542969 174.125 427.367188 172.910156 L 429.5 172.449219 C 429.730469 173.199219 430.078125 173.71875 430.597656 174.066406 C 431.117188 174.410156 431.75 174.527344 432.558594 174.527344 C 433.363281 174.527344 434.054688 174.355469 434.574219 174.007812 C 435.09375 173.660156 435.496094 173.140625 435.726562 172.449219 L 437.859375 172.910156 C 437.746094 174.179688 437.167969 175.160156 436.1875 175.855469 C 435.207031 176.546875 433.996094 176.949219 432.558594 176.949219 C 431.117188 176.949219 429.960938 176.605469 428.980469 175.855469 Z M 429.039062 175.855469 "/>
<path style=" stroke:none;fill-rule:nonzero;fill-opacity:1;" d="M 455.90625 181.046875 C 456.828125 181.335938 457.691406 181.855469 458.5 182.546875 L 457 184.566406 C 456.367188 184.105469 455.730469 183.757812 455.097656 183.527344 C 454.464844 183.296875 453.828125 183.179688 453.078125 183.179688 C 451.582031 183.179688 450.429688 183.757812 449.621094 184.96875 C 448.8125 186.125 448.410156 187.914062 448.410156 190.21875 C 448.410156 192.527344 448.8125 194.257812 449.621094 195.296875 C 450.429688 196.394531 451.582031 196.96875 453.078125 196.96875 C 453.773438 196.96875 454.464844 196.855469 455.039062 196.625 C 455.617188 196.394531 456.308594 196.046875 457.058594 195.585938 L 458.5 197.664062 C 456.828125 198.988281 454.980469 199.683594 452.90625 199.683594 C 450.429688 199.683594 448.527344 198.875 447.085938 197.203125 C 445.644531 195.527344 444.953125 193.21875 444.953125 190.335938 C 444.953125 188.375 445.296875 186.699219 445.929688 185.257812 C 446.566406 183.816406 447.488281 182.664062 448.699219 181.855469 C 449.910156 181.046875 451.292969 180.644531 452.90625 180.644531 C 454.003906 180.644531 454.980469 180.816406 455.90625 181.105469 Z M 455.90625 181.046875 "/>
<path style=" stroke:none;fill-rule:nonzero;fill-opacity:1;" d="M 476.542969 180.988281 L 471.007812 189.414062 L 477.175781 199.21875 L 473.429688 199.21875 L 468.355469 190.796875 L 466.050781 190.796875 L 466.050781 199.21875 L 462.878906 199.21875 L 462.878906 180.988281 L 466.050781 180.988281 L 466.050781 188.316406 L 468.414062 188.316406 L 473.027344 180.988281 Z M 476.542969 180.988281 "/>
<path style=" stroke:none;fill-rule:nonzero;fill-opacity:1;" d="M 493.320312 183.125 C 494.761719 184.855469 495.453125 187.164062 495.453125 190.105469 C 495.453125 192.007812 495.105469 193.683594 494.472656 195.125 C 493.839844 196.566406 492.914062 197.664062 491.648438 198.46875 C 490.4375 199.277344 488.996094 199.683594 487.265625 199.683594 C 484.730469 199.683594 482.710938 198.816406 481.269531 197.144531 C 479.828125 195.46875 479.136719 193.105469 479.136719 190.164062 C 479.136719 188.257812 479.484375 186.585938 480.117188 185.144531 C 480.75 183.699219 481.675781 182.605469 482.941406 181.796875 C 484.210938 180.988281 485.652344 180.585938 487.324219 180.585938 C 489.859375 180.585938 491.878906 181.449219 493.320312 183.125 Z M 482.597656 190.105469 C 482.597656 194.71875 484.152344 197.085938 487.324219 197.085938 C 490.496094 197.085938 492.050781 194.777344 492.050781 190.105469 C 492.050781 185.429688 490.496094 183.125 487.382812 183.125 C 484.269531 183.125 482.652344 185.429688 482.652344 190.105469 Z M 482.597656 190.105469 "/>
<path style=" stroke:none;fill-rule:nonzero;fill-opacity:1;" d="M 514.878906 199.21875 L 511.710938 199.21875 L 511.710938 190.96875 C 511.710938 189.585938 511.710938 188.257812 511.824219 187.046875 C 511.941406 185.777344 511.996094 184.96875 512.054688 184.566406 L 504.386719 199.21875 L 500.640625 199.21875 L 500.640625 180.988281 L 503.8125 180.988281 L 503.8125 189.238281 C 503.8125 190.449219 503.8125 191.71875 503.695312 193.046875 C 503.582031 194.375 503.523438 195.183594 503.464844 195.527344 L 511.015625 180.988281 L 514.878906 180.988281 Z M 504.15625 175.855469 C 503.175781 175.105469 502.660156 174.125 502.484375 172.910156 L 504.617188 172.449219 C 504.847656 173.199219 505.195312 173.71875 505.714844 174.066406 C 506.234375 174.410156 506.867188 174.527344 507.675781 174.527344 C 508.480469 174.527344 509.171875 174.355469 509.691406 174.007812 C 510.210938 173.660156 510.613281 173.140625 510.84375 172.449219 L 512.976562 172.910156 C 512.863281 174.179688 512.285156 175.160156 511.304688 175.855469 C 510.324219 176.546875 509.113281 176.949219 507.675781 176.949219 C 506.234375 176.949219 505.078125 176.605469 504.101562 175.855469 Z M 504.15625 175.855469 "/>
<path style=" stroke:none;fill-rule:nonzero;fill-opacity:1;" d="M 551.371094 194.894531 C 549.414062 196.683594 546.644531 197.605469 543.128906 197.664062 L 543.128906 200.375 L 539.957031 200.375 L 539.957031 197.664062 C 536.269531 197.488281 533.5 196.507812 531.597656 194.71875 C 529.695312 192.933594 528.714844 190.394531 528.714844 187.164062 C 528.714844 183.757812 529.695312 181.160156 531.65625 179.375 C 533.617188 177.585938 536.382812 176.660156 539.898438 176.605469 L 539.898438 174.179688 L 543.070312 174.179688 L 543.070312 176.605469 C 546.761719 176.777344 549.527344 177.757812 551.429688 179.546875 C 553.332031 181.335938 554.3125 183.875 554.3125 187.105469 C 554.3125 190.507812 553.332031 193.105469 551.371094 194.894531 Z M 534.078125 193.105469 C 535.402344 194.375 537.363281 195.125 540.015625 195.238281 L 540.015625 179.085938 C 537.304688 179.257812 535.34375 179.949219 534.019531 181.21875 C 532.695312 182.488281 532.117188 184.507812 532.117188 187.21875 C 532.117188 189.933594 532.75 191.835938 534.078125 193.164062 Z M 549.007812 193.105469 C 550.277344 191.835938 550.910156 189.816406 550.910156 187.105469 C 550.910156 184.394531 550.277344 182.488281 548.949219 181.160156 C 547.625 179.894531 545.664062 179.144531 543.011719 179.027344 L 543.011719 195.183594 C 545.722656 195.007812 547.683594 194.316406 549.007812 193.046875 Z M 549.007812 193.105469 "/>
<path style=" stroke:none;fill-rule:nonzero;fill-opacity:1;" d="M 572.644531 191.199219 L 561 191.199219 C 561.113281 193.21875 561.632812 194.664062 562.5 195.644531 C 563.363281 196.566406 564.515625 197.085938 565.898438 197.085938 C 566.765625 197.085938 567.570312 196.96875 568.320312 196.683594 C 569.070312 196.394531 569.820312 196.046875 570.628906 195.46875 L 572.011719 197.375 C 570.050781 198.875 567.976562 199.683594 565.667969 199.683594 C 563.132812 199.683594 561.171875 198.875 559.730469 197.203125 C 558.289062 195.527344 557.597656 193.277344 557.597656 190.335938 C 557.597656 188.433594 557.886719 186.757812 558.519531 185.316406 C 559.15625 183.875 560.019531 182.71875 561.171875 181.855469 C 562.324219 181.046875 563.652344 180.585938 565.207031 180.585938 C 567.628906 180.585938 569.472656 181.394531 570.800781 182.949219 C 572.070312 184.566406 572.761719 186.757812 572.761719 189.585938 C 572.761719 190.105469 572.761719 190.683594 572.703125 191.199219 Z M 569.589844 188.664062 C 569.589844 186.875 569.242188 185.488281 568.492188 184.566406 C 567.746094 183.644531 566.707031 183.125 565.265625 183.125 C 562.671875 183.125 561.230469 185.027344 561 188.894531 L 569.53125 188.894531 L 569.53125 188.664062 Z M 569.589844 188.664062 "/>
<path style=" stroke:none;fill-rule:nonzero;fill-opacity:1;" d="M 592.128906 196.625 L 592.128906 204.355469 L 589.535156 204.355469 L 589.015625 199.164062 L 577.316406 199.164062 L 576.796875 204.355469 L 574.203125 204.355469 L 574.203125 196.625 L 575.46875 196.625 C 576.046875 196.277344 576.449219 195.816406 576.796875 195.355469 C 577.140625 194.894531 577.429688 194.027344 577.660156 192.875 C 577.949219 191.71875 578.121094 189.988281 578.292969 187.738281 L 578.757812 180.929688 L 590.171875 180.929688 L 590.171875 196.625 Z M 587.058594 183.46875 L 581.695312 183.46875 L 581.40625 187.335938 C 581.234375 189.46875 581.0625 191.144531 580.832031 192.296875 C 580.601562 193.449219 580.3125 194.316406 579.964844 194.949219 C 579.621094 195.585938 579.042969 196.164062 578.292969 196.625 L 587 196.625 L 587 183.46875 Z M 587.058594 183.46875 "/>
<path style=" stroke:none;fill-rule:nonzero;fill-opacity:1;" d="M 610.40625 191.199219 L 598.761719 191.199219 C 598.875 193.21875 599.394531 194.664062 600.257812 195.644531 C 601.125 196.566406 602.277344 197.085938 603.660156 197.085938 C 604.523438 197.085938 605.332031 196.96875 606.082031 196.683594 C 606.832031 196.394531 607.582031 196.046875 608.386719 195.46875 L 609.769531 197.375 C 607.8125 198.875 605.734375 199.683594 603.429688 199.683594 C 600.894531 199.683594 598.933594 198.875 597.492188 197.203125 C 596.050781 195.527344 595.359375 193.277344 595.359375 190.335938 C 595.359375 188.433594 595.648438 186.757812 596.28125 185.316406 C 596.914062 183.875 597.78125 182.71875 598.933594 181.855469 C 600.085938 181.046875 601.410156 180.585938 602.96875 180.585938 C 605.390625 180.585938 607.234375 181.394531 608.5625 182.949219 C 609.828125 184.566406 610.519531 186.757812 610.519531 189.585938 C 610.519531 190.105469 610.519531 190.683594 610.464844 191.199219 Z M 607.351562 188.664062 C 607.351562 186.875 607.003906 185.488281 606.253906 184.566406 C 605.503906 183.644531 604.46875 183.125 603.027344 183.125 C 600.433594 183.125 598.992188 185.027344 598.761719 188.894531 L 607.292969 188.894531 L 607.292969 188.664062 Z M 607.351562 188.664062 "/>
<path style=" stroke:none;fill-rule:nonzero;fill-opacity:1;" d="M 629.027344 183.066406 C 630.121094 184.738281 630.640625 187.046875 630.640625 190.105469 C 630.640625 192.988281 630.007812 195.296875 628.796875 197.027344 C 627.527344 198.757812 625.796875 199.683594 623.492188 199.683594 C 621.472656 199.683594 619.859375 198.988281 618.707031 197.605469 L 618.707031 206.257812 L 615.535156 206.664062 L 615.535156 181.046875 L 618.246094 181.046875 L 618.476562 183.527344 C 619.167969 182.605469 619.976562 181.914062 620.898438 181.394531 C 621.820312 180.875 622.859375 180.644531 623.894531 180.644531 C 626.203125 180.644531 627.929688 181.449219 629.027344 183.125 Z M 627.238281 190.105469 C 627.238281 185.429688 625.855469 183.125 623.144531 183.125 C 622.222656 183.125 621.417969 183.414062 620.667969 183.929688 C 619.917969 184.449219 619.285156 185.144531 618.707031 185.949219 L 618.707031 194.835938 C 619.167969 195.527344 619.746094 196.105469 620.4375 196.507812 C 621.128906 196.914062 621.878906 197.085938 622.742188 197.085938 C 625.738281 197.085938 627.238281 194.777344 627.238281 190.105469 Z M 627.238281 190.105469 "/>
<path style=" stroke:none;fill-rule:nonzero;fill-opacity:1;" d="M 648.394531 196.625 C 648.628906 196.96875 649.03125 197.257812 649.550781 197.433594 L 648.800781 199.625 C 647.878906 199.507812 647.070312 199.21875 646.492188 198.816406 C 645.917969 198.414062 645.515625 197.777344 645.226562 196.855469 C 644.015625 198.703125 642.171875 199.566406 639.804688 199.566406 C 638.019531 199.566406 636.578125 199.046875 635.539062 198.066406 C 634.503906 197.085938 633.984375 195.703125 633.984375 194.085938 C 633.984375 192.125 634.675781 190.683594 636.058594 189.644531 C 637.441406 188.605469 639.402344 188.085938 641.996094 188.085938 L 644.820312 188.085938 L 644.820312 186.757812 C 644.820312 185.488281 644.535156 184.566406 643.898438 183.988281 C 643.265625 183.414062 642.34375 183.179688 641.015625 183.179688 C 639.691406 183.179688 638.019531 183.527344 636.117188 184.164062 L 635.308594 181.855469 C 637.558594 181.046875 639.691406 180.585938 641.59375 180.585938 C 643.726562 180.585938 645.339844 181.105469 646.378906 182.144531 C 647.417969 183.179688 647.992188 184.679688 647.992188 186.644531 L 647.992188 195.007812 C 647.992188 195.757812 648.109375 196.277344 648.394531 196.683594 Z M 644.820312 194.433594 L 644.820312 190.21875 L 642.457031 190.21875 C 639.113281 190.21875 637.386719 191.488281 637.386719 193.96875 C 637.386719 195.066406 637.671875 195.875 638.191406 196.453125 C 638.710938 197.027344 639.519531 197.257812 640.554688 197.257812 C 642.402344 197.257812 643.785156 196.335938 644.820312 194.433594 Z M 644.820312 194.433594 "/>
<path style=" stroke:none;fill-rule:nonzero;fill-opacity:1;" d="M 668.226562 196.625 L 670.996094 196.625 L 670.996094 204.355469 L 668.402344 204.355469 L 667.882812 199.164062 L 654.566406 199.164062 L 654.566406 180.929688 L 657.734375 180.929688 L 657.734375 196.566406 L 665.058594 196.566406 L 665.058594 180.929688 L 668.226562 180.929688 Z M 668.226562 196.625 "/>
<path style=" stroke:none;fill-rule:nonzero;fill-opacity:1;" d="M 688.980469 199.21875 L 685.8125 199.21875 L 685.8125 190.96875 C 685.8125 189.585938 685.8125 188.257812 685.925781 187.046875 C 686.042969 185.777344 686.097656 184.96875 686.15625 184.566406 L 678.488281 199.21875 L 674.742188 199.21875 L 674.742188 180.988281 L 677.914062 180.988281 L 677.914062 189.238281 C 677.914062 190.449219 677.914062 191.71875 677.796875 193.046875 C 677.683594 194.375 677.625 195.183594 677.566406 195.527344 L 685.121094 180.988281 L 688.980469 180.988281 Z M 688.980469 199.21875 "/>
<path style=" stroke:none;fill-rule:nonzero;fill-opacity:1;" d="M 709.734375 199.21875 L 706.566406 199.21875 L 706.566406 190.96875 C 706.566406 189.585938 706.566406 188.257812 706.679688 187.046875 C 706.796875 185.777344 706.851562 184.96875 706.910156 184.566406 L 699.242188 199.21875 L 695.496094 199.21875 L 695.496094 180.988281 L 698.667969 180.988281 L 698.667969 189.238281 C 698.667969 190.449219 698.667969 191.71875 698.550781 193.046875 C 698.4375 194.375 698.378906 195.183594 698.320312 195.527344 L 705.871094 180.988281 L 709.734375 180.988281 Z M 709.734375 199.21875 "/>
</g>
</svg>
