<svg viewBox="0 0 203 34" fill="#ffffff" xmlns="http://www.w3.org/2000/svg">
<path d="M34.7162 25.9473H17.4077C16.9075 26.0467 16.4072 26.1461 16.007 26.4443C15.5068 26.7426 15.1066 27.1402 14.8064 27.5379L11.3047 33.6022H39.2184L34.7162 25.9473Z"/>
<path d="M25.0123 23.5613C25.5125 23.8596 26.1128 24.0584 26.6131 24.0584H33.6165L19.6096 0L15.1074 7.65494L23.6116 22.269C24.0118 22.766 24.412 23.2631 25.0123 23.5613Z"/>
<path d="M17.9088 17.1989C17.9088 16.6024 17.8088 16.0059 17.5086 15.5088L14.0069 9.54395L0 33.6024H8.9044L17.3085 19.0878C17.8088 18.4913 17.9088 17.8948 17.9088 17.1989Z"/>
<path d="M59.1287 15.807C59.1287 15.5087 59.4288 4.07601 59.4288 4.07601L56.3273 15.807H53.9261L50.8246 4.07601C50.8246 4.07601 51.1247 15.3099 51.1247 15.807H48.5234V1.49121H52.4254L55.2268 12.1286L58.0281 1.49121H61.93V15.807H59.1287Z"/>
<path d="M76.8371 15.807H74.1357V6.46196L67.7326 14.1169V15.807H65.0312V1.49121H67.7326V10.7368L74.1357 3.08186V1.49121H76.8371V15.807Z"/>
<path d="M88.9434 15.807V9.34499H82.7404V15.807H80.0391V1.49121H82.7404V6.85961H88.9434V1.49121H91.6448V15.807H88.9434Z"/>
<path d="M106.353 1.49121V15.807H103.652V3.97659H97.6486V15.807H94.9473V1.49121H106.353Z"/>
<path d="M115.155 1.49121C118.157 1.49121 120.258 3.28067 120.258 6.26312C120.258 8.84791 118.757 10.9356 114.955 10.9356H112.254V15.807H109.652V1.49121H115.155ZM112.254 8.74849H114.655C116.556 8.74849 117.556 7.85375 117.556 6.1637C117.556 3.87715 115.655 3.77774 114.355 3.77774H112.254V8.74849Z"/>
<path d="M128.564 1.09375C132.966 1.09375 135.467 4.67269 135.467 8.54987C135.467 11.8306 133.666 16.1054 128.564 16.1054C124.362 16.1054 121.76 12.6259 121.76 8.64927C121.66 4.47384 124.362 1.09375 128.564 1.09375ZM128.564 13.62C130.665 13.62 132.666 12.0294 132.666 8.74869C132.666 6.1639 131.365 3.57912 128.464 3.57912C126.063 3.57912 124.362 5.46801 124.362 8.54987C124.362 10.737 125.462 13.62 128.564 13.62Z"/>
<path d="M148.674 15.807C148.674 15.5087 148.974 4.07601 148.974 4.07601L145.872 15.807H143.471L140.369 4.07601C140.369 4.07601 140.67 15.3099 140.67 15.807H138.068V1.49121H141.97L144.772 12.1286L147.573 1.49121H151.475V15.807H148.674Z"/>
<path d="M159.879 3.87716V15.7075H157.177V3.87716H153.275V1.49121H163.881V3.87716H159.879Z"/>
<path d="M172.185 1.09375C176.587 1.09375 179.088 4.67269 179.088 8.54987C179.088 11.8306 177.287 16.1054 172.185 16.1054C167.983 16.1054 165.382 12.6259 165.382 8.64927C165.281 4.47384 168.083 1.09375 172.185 1.09375ZM172.185 13.62C174.286 13.62 176.387 12.0294 176.387 8.74869C176.387 6.1639 175.086 3.57912 172.185 3.57912C169.784 3.57912 168.083 5.46801 168.083 8.54987C168.083 10.737 169.183 13.62 172.185 13.62Z"/>
<path d="M187.292 1.49121C190.294 1.49121 192.395 3.28067 192.395 6.26312C192.395 8.84791 190.894 10.9356 187.092 10.9356H184.391V15.807H181.689V1.49121H187.292ZM184.391 8.74849H186.792C188.693 8.74849 189.693 7.85375 189.693 6.1637C189.693 3.87715 187.792 3.77774 186.492 3.77774H184.391V8.74849Z"/>
<path d="M202.999 1.49102V3.87698H197.096V15.7074H194.395V1.3916H202.999"/>
<path d="M54.0261 19.2861C57.0276 19.2861 59.1287 21.0756 59.1287 24.058C59.1287 26.6428 57.6279 28.7306 53.9261 28.7306H51.2248V33.6019H48.5234V19.2861H54.0261ZM51.1247 26.5434H53.5259C55.4268 26.5434 56.4273 25.6487 56.4273 23.9586C56.4273 21.6721 54.5264 21.5727 53.2258 21.5727H51.1247V26.5434Z"/>
<path d="M67.3333 18.8887C71.7355 18.8887 74.2367 22.4676 74.2367 26.3448C74.2367 29.6255 72.4358 33.9003 67.3333 33.9003C63.1312 33.9003 60.5299 30.4208 60.5299 26.4442C60.4299 22.2688 63.2313 18.8887 67.3333 18.8887ZM67.3333 31.415C69.4343 31.415 71.4353 29.8243 71.4353 26.5436C71.4353 23.9588 70.1347 21.374 67.2333 21.374C64.8321 21.374 63.1312 23.2629 63.1312 26.3448C63.2313 28.6313 64.3318 31.415 67.3333 31.415Z"/>
<path d="M88.8439 29.6257C88.3436 30.8186 86.7428 33.9999 82.6408 33.9999C79.2391 33.9999 75.9375 31.7134 75.9375 26.345C75.9375 23.1637 77.7384 18.9883 82.7408 18.9883C86.4427 18.9883 87.9434 21.3742 88.5437 23.3625L85.8424 24.0584C85.6423 22.4678 84.3416 21.3742 82.7408 21.3742C80.4397 21.3742 78.7389 23.1637 78.7389 26.345C78.7389 28.3333 79.5393 31.4152 82.7408 31.4152C84.6418 31.4152 85.8424 30.0233 86.2426 28.5321L88.8439 29.6257Z"/>
<path d="M103.25 29.6257C102.75 30.8186 101.149 33.9999 97.0471 33.9999C93.6454 33.9999 90.3438 31.7134 90.3438 26.345C90.3438 23.1637 92.1446 18.9883 97.1471 18.9883C100.849 18.9883 102.35 21.3742 102.95 23.3625L100.249 24.0584C100.049 22.4678 98.7479 21.3742 97.1471 21.3742C94.846 21.3742 93.1451 23.1637 93.1451 26.345C93.1451 28.3333 93.9455 31.4152 97.1471 31.4152C99.048 31.4152 100.249 30.0233 100.649 28.5321L103.25 29.6257Z"/>
<path d="M117.058 33.6019H114.356V24.2569L107.953 31.9118V33.6019H105.252V19.2861H107.953V28.5317L114.356 20.8768V19.2861H117.058V33.6019Z"/>
<path d="M132.066 33.6019H129.364V24.2569L122.961 31.9118V33.6019H120.26V19.2861H122.961V28.5317L129.364 20.8768V19.2861H132.066V33.6019Z"/>
</svg>
