<svg width="139" height="47" viewBox="0 0 139 47" fill="none" xmlns="http://www.w3.org/2000/svg">
<path d="M22.6248 46.8925L22.707 23.7855L42.4981 12.8193L38.4383 32.4106L22.6248 46.8925ZM24.4005 24.8292L24.4231 42.969L36.8769 31.4871L40.0543 16.1559L24.4005 24.8292Z" fill="white"/>
<path d="M20.049 46.8925L4.09128 32.4106L0.0322266 12.8193L19.8231 23.7855L20.049 46.8925ZM5.65282 31.4871L18.2506 42.969L18.1297 24.8292L2.47607 16.1559L5.65282 31.4871Z" fill="white"/>
<path d="M21.265 21.2733L0.651934 10.0557L21.265 0.483887L41.8783 10.0557L21.265 21.2733ZM4.5067 10.179L21.265 19.2991L38.0235 10.179L21.265 2.3972L4.5067 10.179Z" fill="white"/>
<path fill-rule="evenodd" clip-rule="evenodd" d="M138.366 16.5801V22.5465H137.522V17.112C137.522 15.239 136.473 13.9902 134.649 13.9902C132.893 13.9902 131.525 15.3546 131.525 17.2739V22.5465H130.659V9.45763H131.525V15.1002C132.118 14.0364 133.121 13.2039 134.786 13.2039C136.929 13.2039 138.229 14.5914 138.366 16.5801ZM124.297 22.7546H123.75C121.265 22.6158 119.395 20.4884 119.395 18.014V17.9908C119.395 15.4239 121.424 13.2039 124.001 13.2039C125.711 13.2039 126.76 13.9902 127.626 14.8689L126.988 15.5164C126.213 14.707 125.323 14.0133 123.978 14.0133C121.926 14.0133 120.353 15.7476 120.353 17.9445V17.9908C120.353 20.1877 121.994 21.9452 124.069 21.9452C125.323 21.9452 126.327 21.2746 127.079 20.419L127.695 20.9509C126.828 21.9452 125.802 22.6852 124.297 22.7546ZM112.623 22.7546H112.076C109.978 22.639 108.747 21.1127 108.747 19.0083V13.4121H109.613V18.8465C109.613 20.7196 110.662 21.9683 112.486 21.9683C114.242 21.9683 115.61 20.604 115.61 18.7077V13.4121H116.477V22.5465H115.61V20.8583C115.04 21.8759 114.105 22.6852 112.623 22.7546ZM101.61 22.7546H101.063C98.5322 22.6158 96.7081 20.4884 96.7081 18.014V17.9908C96.7081 15.4239 98.6918 13.2039 101.36 13.2039C104.05 13.2039 105.988 15.3777 105.988 17.9445V17.9908C105.988 20.4652 104.164 22.6158 101.61 22.7546ZM70.1905 22.7546H69.6433C67.3859 22.639 65.4707 20.7428 65.4707 17.9908V17.9676C65.4707 15.3083 67.3176 13.2039 69.7572 13.2039C72.2882 13.2039 73.8843 15.262 73.8843 17.9908C73.8843 18.1527 73.8843 18.1989 73.8614 18.3377H66.3827C66.5423 20.6271 68.1612 21.9452 69.9169 21.9452C71.3305 21.9452 72.2882 21.3209 73.0178 20.5115L73.6335 21.0434C72.767 21.9915 71.7637 22.6852 70.1905 22.7546ZM51.4252 22.5465V9.9895H52.2917L60.842 20.9277V9.9895H61.7313V22.5465H61.0245L52.3145 11.4001V22.5465H51.4252ZM69.7117 13.9902C67.9332 13.9902 66.5423 15.5164 66.3827 17.5514H72.9494C72.8354 15.7014 71.7866 13.9902 69.7117 13.9902ZM84.4184 22.5465H83.3239L80.1545 18.4765L76.9624 22.5465H75.9135L79.6073 17.8983L76.0732 13.4121H77.1448L80.1774 17.2739L83.2327 13.4121H84.2816L80.7246 17.8752L84.4184 22.5465ZM91.3955 10.8683V22.5465H90.4834V10.8683H86.1512V9.9895H95.7048V10.8683H91.3955ZM105.053 17.9908C105.053 15.7708 103.412 14.0133 101.337 14.0133C99.1934 14.0133 97.6657 15.7939 97.6657 17.9445V17.9908C97.6657 20.1877 99.2846 21.9452 101.36 21.9452C103.503 21.9452 105.053 20.1646 105.053 18.014V17.9908Z" fill="white"/>
<path fill-rule="evenodd" clip-rule="evenodd" d="M56.6467 31.5885V27.4722H56.9431V31.5885H56.6467ZM103.229 31.6578H102.636C101.565 31.519 100.903 30.5941 100.903 29.5534V29.5303C100.903 28.4203 101.702 27.4028 102.933 27.4028C104.164 27.4028 104.985 28.3972 104.985 29.5303C104.985 30.5709 104.278 31.519 103.229 31.6578ZM75.4347 31.6578H74.8647C73.7931 31.519 73.109 30.5941 73.109 29.5534V29.5303C73.109 28.4203 73.9298 27.4028 75.1611 27.4028C76.3924 27.4028 77.2132 28.3972 77.2132 29.5303C77.2132 30.5709 76.5064 31.519 75.4347 31.6578ZM63.3273 31.5885L60.4544 27.9346V31.5885H60.1808V27.4722H60.4544L63.259 31.0566V27.4722H63.5554V31.5885H63.3273ZM69.894 31.5885L67.0211 27.9346V31.5885H66.7247V27.4722H67.0211L69.8257 31.0566V27.4722H70.1221V31.5885H69.894ZM76.894 29.5303C76.894 28.5128 76.1643 27.6803 75.1611 27.6803C74.1579 27.6803 73.4282 28.5128 73.4282 29.5303C73.4282 30.5478 74.1579 31.4034 75.1611 31.4034C76.1644 31.4034 76.894 30.5709 76.894 29.5534V29.5303ZM81.6822 31.6347H81.4086L79.6301 27.4722H79.9721L81.5454 31.2646L83.1415 27.4722H83.4607L81.6822 31.6347ZM89.1153 31.5885L88.6137 30.4553H86.2196L85.6952 31.5885H85.376L87.2684 27.449H87.5649L89.4573 31.5885H89.1153ZM87.4052 27.7958L86.3337 30.1778H88.4769L87.4052 27.7958ZM93.1967 27.7728V31.5885H92.9004V27.7728H91.4866V27.4722H94.6104V27.7728H93.1967ZM97.5517 31.5885V27.4722H97.8482V31.5885H97.5517ZM104.666 29.5303C104.666 28.5128 103.936 27.6803 102.933 27.6803C101.93 27.6803 101.2 28.5128 101.2 29.5303C101.2 30.5478 101.93 31.4034 102.933 31.4034C103.936 31.4034 104.666 30.5709 104.666 29.5534V29.5303ZM111.141 31.5885L108.268 27.9346V31.5885H107.995V27.4722H108.268L111.073 31.0566V27.4722H111.369V31.5885H111.141ZM118.278 31.5885V27.4722H118.574V31.3109H120.946V31.5885H118.278ZM127.011 31.5885L126.486 30.4553H124.092L123.568 31.5885H123.249L125.141 27.449H125.437L127.33 31.5885H127.011ZM125.278 27.7958L124.206 30.1778H126.349L125.278 27.7958ZM133.167 30.4553V30.4784C133.167 31.1722 132.574 31.5885 131.708 31.5885H129.929V27.4722H131.616C132.072 27.4722 132.437 27.6109 132.665 27.8422C132.848 28.0271 132.939 28.2353 132.939 28.4896V28.5128C132.939 29.0678 132.574 29.3453 132.232 29.4841C132.734 29.6228 133.167 29.9003 133.167 30.4553ZM132.62 28.5359V28.5128C132.62 28.0734 132.255 27.7728 131.616 27.7728H130.248V29.3915H131.571C132.186 29.3915 132.62 29.0909 132.62 28.5359ZM132.848 30.4553C132.848 29.9697 132.415 29.669 131.616 29.669H130.248V31.3109H131.708C132.415 31.3109 132.848 30.9871 132.848 30.4784V30.4553Z" fill="white"/>
</svg>
