<svg width="169" height="48" viewBox="0 0 169 48" fill="none" xmlns="http://www.w3.org/2000/svg">
<path d="M11.9607 10.1739H0V47.9992H38.4514V36.2603H11.9607V10.1739Z" fill="white"/>
<path d="M24.1427 24.3033V10.1739H11.9607V36.2603H38.4514L38.4514 24.3033H24.1427Z" fill="#0367A2"/>
<path d="M38.4514 10.1739L24.1427 10.1739V24.3033H38.4514L38.4514 10.1739Z" fill="#E64727"/>
<path fill-rule="evenodd" clip-rule="evenodd" d="M24.1427 3.36955V6.60856H42.106V24.3041H45.4281V3.36955H24.1427Z" fill="#E64727"/>
<path d="M61.8634 3.34805C64.6801 3.34805 66.1604 4.78249 66.1604 6.6961C66.1604 8.60971 64.6738 10.0441 61.8634 10.0441H58.7416V13.5442H57.4115V3.34805H61.8634ZM61.8634 4.4999H58.7416V8.86926H61.8649C63.8585 8.86926 64.8326 7.91246 64.8326 6.67383C64.8318 5.45671 63.857 4.4999 61.8634 4.4999Z" fill="white"/>
<path d="M68.2424 8.43464C68.2725 7.46083 68.5942 6.5173 69.1675 5.72189C69.7407 4.92649 70.54 4.31446 71.4655 3.96222C72.391 3.60998 73.4017 3.53314 74.3715 3.7413C75.3412 3.94947 76.227 4.43341 76.9181 5.13269C77.6093 5.83198 78.0753 6.71561 78.2578 7.67325C78.4404 8.63089 78.3315 9.6201 77.9447 10.5173C77.5578 11.4146 76.9102 12.1801 76.0828 12.7183C75.2553 13.2565 74.2847 13.5435 73.292 13.5435C72.6164 13.5411 71.948 13.4061 71.3263 13.1466C70.7046 12.8871 70.142 12.5082 69.6715 12.0323C69.2011 11.5563 68.8323 10.9929 68.5869 10.375C68.3414 9.75723 68.2243 9.09751 68.2424 8.43464ZM77.1023 8.43464C77.0483 7.71098 76.7801 7.01855 76.3309 6.44228C75.8817 5.86601 75.2708 5.43096 74.5733 5.19049C73.8758 4.95002 73.1219 4.91459 72.4042 5.08854C71.6865 5.2625 71.036 5.63828 70.5328 6.16979C70.0295 6.70129 69.6952 7.3654 69.5709 8.08067C69.4467 8.79594 69.5378 9.53126 69.8332 10.1964C70.1285 10.8616 70.6153 11.4277 71.2337 11.8253C71.8522 12.2228 72.5754 12.4346 73.3147 12.4346C73.8348 12.4279 74.348 12.3176 74.8234 12.1106C75.2989 11.9035 75.7265 11.604 76.0806 11.2301C76.4346 10.8562 76.7078 10.4156 76.8834 9.93513C77.059 9.45465 77.1335 8.94419 77.1023 8.43464Z" fill="white"/>
<path d="M88.4652 3.82568C88.7712 3.9496 89.0603 4.1103 89.3259 4.30408L88.772 5.19562C88.5505 5.06507 88.2845 4.93453 88.0192 4.80399C87.4324 4.55382 86.7984 4.42796 86.1587 4.43463C85.0916 4.45515 84.0753 4.88559 83.3281 5.6335C82.5808 6.38141 82.1622 7.38713 82.1622 8.43463C82.1622 9.48212 82.5808 10.4878 83.3281 11.2358C84.0753 11.9837 85.0916 12.4141 86.1587 12.4346C86.8429 12.433 87.5175 12.2769 88.1304 11.9785C88.3944 11.8563 88.6466 11.7108 88.8838 11.5439L89.4378 12.4354C89.1716 12.6586 88.8731 12.8418 88.5521 12.9791C87.7993 13.3366 86.9739 13.5224 86.1376 13.5227C85.4487 13.531 84.765 13.405 84.1261 13.152C83.4872 12.899 82.9058 12.524 82.4157 12.0489C81.9255 11.5737 81.5363 11.0077 81.2708 10.3838C81.0051 9.75989 80.8684 9.09045 80.8684 8.41427C80.8684 7.7381 81.0051 7.06865 81.2708 6.44474C81.5363 5.82084 81.9255 5.25489 82.4157 4.7797C82.9058 4.30451 83.4872 3.92954 84.1261 3.67653C84.765 3.42353 85.4487 3.29752 86.1376 3.30581C86.9397 3.33511 87.7292 3.51143 88.4652 3.82568Z" fill="white"/>
<path d="M98.9417 3.82568C99.2476 3.9496 99.5367 4.1103 99.8023 4.30408L99.2484 5.19562C99.027 5.06507 98.7609 4.93453 98.4949 4.80399C97.9081 4.55382 97.2741 4.42796 96.6344 4.43463C95.5673 4.45515 94.551 4.88559 93.8037 5.6335C93.0565 6.38141 92.6379 7.38713 92.6379 8.43463C92.6379 9.48212 93.0565 10.4878 93.8037 11.2358C94.551 11.9837 95.5673 12.4141 96.6344 12.4346C97.3185 12.433 97.9932 12.2769 98.606 11.9785C98.8701 11.8563 99.1222 11.7108 99.3595 11.5439L99.9134 12.4354C99.6472 12.6586 99.3488 12.8418 99.0278 12.9791C98.2749 13.3366 97.4495 13.5224 96.6133 13.5227C95.9244 13.531 95.2406 13.405 94.6017 13.152C93.9628 12.899 93.3815 12.524 92.8913 12.0489C92.4012 11.5737 92.012 11.0077 91.7464 10.3838C91.4808 9.75989 91.3441 9.09045 91.3441 8.41427C91.3441 7.7381 91.4808 7.06865 91.7464 6.44474C92.012 5.82084 92.4012 5.25489 92.8913 4.7797C93.3815 4.30451 93.9628 3.92954 94.6017 3.67653C95.2406 3.42353 95.9244 3.29752 96.6133 3.30581C97.4156 3.335 98.2054 3.51132 98.9417 3.82568Z" fill="white"/>
<path d="M103.925 11.4126L110.237 3.32578H111.567V13.5212H110.237V5.43443H110.171L103.86 13.5212H102.53V3.32578H103.86V11.4126H103.925Z" fill="white"/>
<path d="M116.196 11.4126L122.509 3.32578H123.839V13.5212H122.509V5.43444H122.42L116.108 13.5212H114.778V3.32578H116.108V11.4126H116.196ZM116.794 0H117.901C117.901 0.369032 118.05 0.722952 118.316 0.983897C118.582 1.24484 118.943 1.39143 119.319 1.39143C119.695 1.39143 120.055 1.24484 120.321 0.983897C120.587 0.722952 120.736 0.369032 120.736 0H121.844C121.832 0.649758 121.561 1.26904 121.088 1.7245C120.616 2.17996 119.98 2.43516 119.318 2.43516C118.656 2.43516 118.021 2.17996 117.548 1.7245C117.076 1.26904 116.806 0.649758 116.794 0Z" fill="white"/>
<path d="M134.248 3.82568C134.554 3.9496 134.843 4.1103 135.108 4.30408L134.555 5.19562C134.333 5.06507 134.067 4.93453 133.801 4.80399C133.214 4.55382 132.58 4.42796 131.941 4.43463C130.873 4.45515 129.857 4.88559 129.11 5.6335C128.363 6.38141 127.944 7.38713 127.944 8.43463C127.944 9.48212 128.363 10.4878 129.11 11.2358C129.857 11.9837 130.873 12.4141 131.941 12.4346C132.625 12.433 133.299 12.2769 133.912 11.9785C134.176 11.8563 134.428 11.7108 134.666 11.5439L135.22 12.4354C134.953 12.6586 134.655 12.8418 134.334 12.9791C133.581 13.3366 132.756 13.5224 131.919 13.5227C131.23 13.531 130.547 13.405 129.908 13.152C129.269 12.899 128.688 12.524 128.197 12.0489C127.707 11.5737 127.318 11.0077 127.053 10.3838C126.787 9.75989 126.65 9.09045 126.65 8.41427C126.65 7.7381 126.787 7.06865 127.053 6.44474C127.318 5.82084 127.707 5.25489 128.197 4.7797C128.688 4.30451 129.269 3.92954 129.908 3.67653C130.547 3.42353 131.23 3.29752 131.919 3.30581C132.722 3.335 133.512 3.51132 134.248 3.82568Z" fill="white"/>
<path d="M158.613 13.5435H157.195L156.154 11.2175H150.286L149.244 13.5435H147.826L152.344 3.34805H154.05L158.613 13.5435ZM150.838 10.0434H155.644L153.274 4.71722H153.208L150.838 10.0434Z" fill="white"/>
<path d="M169 3.34805V13.5435H167.67V9.76079H163.949L161.132 13.5435H159.587L162.555 9.54348V9.47821C162.149 9.35786 161.772 9.15831 161.447 8.89153C161.082 8.62278 160.791 8.27003 160.597 7.8644C160.404 7.45877 160.316 7.01271 160.34 6.56556C160.34 4.76099 161.757 3.37032 164.503 3.37032H169V3.34805ZM164.482 8.58744H167.671V4.4999H164.482C162.576 4.4999 161.665 5.36916 161.665 6.54328C161.665 7.7174 162.555 8.58744 164.482 8.58744Z" fill="white"/>
<path d="M57.4115 20.5652H62.0183C64.7646 20.5652 65.9609 21.7393 65.9609 23.3296C65.9685 23.6454 65.8954 23.9581 65.7484 24.2391C65.6013 24.5201 65.385 24.7605 65.119 24.9384C64.8568 25.1159 64.5658 25.2483 64.2583 25.33V25.3953C64.693 25.4845 65.1112 25.6383 65.4985 25.8514C65.8709 26.0398 66.1822 26.3265 66.3975 26.6793C66.6127 27.032 66.7233 27.4368 66.7167 27.8479C66.7167 29.3699 65.299 30.7606 62.6192 30.7606H57.4365V20.5652H57.4115ZM61.9964 24.7172C63.1927 24.7172 63.7686 24.1305 63.7686 23.4778C63.7686 22.8251 63.1708 22.2384 61.9964 22.2384H59.4716V24.7164L61.9964 24.7172ZM59.4716 26.3912V29.0866H62.5949C63.9462 29.0866 64.522 28.5214 64.522 27.7811C64.522 26.9549 63.9462 26.3897 62.5949 26.3897L59.4716 26.3912Z" fill="white"/>
<path d="M70.48 20.5652H78.7861V22.2392H72.562V24.8693H76.859V26.5433H72.562V29.0889H78.941V30.7629H70.48V20.5652Z" fill="white"/>
<path d="M91.8765 20.5652V30.7606H89.7946V26.5433H84.4562V30.7606H82.3742V20.5652H84.4562V24.8693H89.7946V20.5652H91.8765Z" fill="white"/>
<path d="M95.6861 20.5652H97.7681V23.4778C97.765 23.7841 97.8242 24.0879 97.9423 24.3714C98.0603 24.655 98.2348 24.9126 98.4554 25.1292C98.6761 25.3458 98.9386 25.517 99.2275 25.6328C99.5164 25.7486 99.8259 25.8068 100.138 25.8038C100.706 25.8012 101.272 25.7282 101.821 25.5865C102.064 25.5212 102.286 25.4329 102.508 25.3692V20.5652H104.59V30.7606H102.508V27.1084C102.308 27.1737 102.065 27.262 101.821 27.3258C101.226 27.4679 100.617 27.5408 100.005 27.5431C99.4412 27.5848 98.8748 27.5087 98.3432 27.3198C97.8115 27.131 97.3267 26.8336 96.9207 26.4475C96.5146 26.0613 96.1967 25.5951 95.9876 25.0795C95.7786 24.5639 95.6833 24.0107 95.708 23.4563V20.5652H95.6861Z" fill="white"/>
<path d="M112.231 27.9777H111.345L107.712 20.5429H110.016L112.833 26.4342H112.989L115.806 20.5429H118.109L113.214 30.7383H110.911L112.231 27.9777Z" fill="white"/>
<path d="M125.853 20.5652C128.755 20.5652 130.304 22.0872 130.304 24.0653C130.304 26.0219 128.754 27.5654 125.853 27.5654H123.173V30.7606H121.091V20.5652H125.853ZM123.173 22.2392V25.8913H125.853C127.27 25.8913 128.156 25.0221 128.156 24.0653C128.156 23.1085 127.27 22.2392 125.853 22.2392H123.173Z" fill="white"/>
<path d="M143.086 20.5652V30.7606H141.004V26.5433H135.666V30.7606H133.584V20.5652H135.666V24.8693H141.004V20.5652H143.086Z" fill="white"/>
<path d="M157.22 30.7606H155.005L154.186 28.7172H149.07L148.251 30.7606H146.032L150.329 20.5652H152.917L157.22 30.7606ZM149.8 26.9564H153.432L151.66 22.7391H151.594L149.8 26.9564Z" fill="white"/>
<path d="M169 20.5652V30.7606H166.918V27.2605H164.017L161.492 30.7606H159.121L161.938 26.8911V26.8259C161.557 26.6951 161.204 26.4962 160.897 26.2392C160.553 25.9556 160.281 25.5984 160.1 25.1951C159.92 24.7918 159.836 24.3533 159.856 23.9132C159.856 21.9566 161.274 20.5652 164.153 20.5652H169ZM164.194 25.5865H166.94V22.2384H164.194C162.776 22.2384 162.045 22.9779 162.045 23.9125C162.023 24.7172 162.776 25.5865 164.194 25.5865Z" fill="white"/>
<path d="M70.3689 42.8911C70.3991 41.9174 70.7208 40.9739 71.294 40.1785C71.8672 39.3831 72.6664 38.7711 73.5919 38.4188C74.5173 38.0665 75.5281 37.9896 76.4978 38.1978C77.4675 38.4059 78.3533 38.8897 79.0445 39.5889C79.7357 40.2881 80.2017 41.1717 80.3844 42.1293C80.567 43.0869 80.4582 44.0761 80.0715 44.9733C79.6848 45.8706 79.0373 46.6361 78.21 47.1744C77.3826 47.7127 76.412 47.9999 75.4194 48C74.7437 47.9977 74.0753 47.8628 73.4534 47.6033C72.8316 47.3439 72.2689 46.965 71.7984 46.489C71.3278 46.0131 70.959 45.4496 70.7135 44.8317C70.4681 44.2139 70.3509 43.5541 70.3689 42.8911ZM79.2101 42.8911C79.1561 42.1675 78.888 41.4751 78.4388 40.8988C77.9895 40.3225 77.3787 39.8875 76.6812 39.647C75.9836 39.4065 75.2298 39.3711 74.512 39.5451C73.7943 39.719 73.1438 40.0948 72.6406 40.6263C72.1373 41.1578 71.803 41.8219 71.6787 42.5372C71.5545 43.2525 71.6456 43.9878 71.941 44.6529C72.2363 45.3181 72.7231 45.8842 73.3416 46.2818C73.96 46.6794 74.6832 46.8912 75.4225 46.8912C75.9426 46.8844 76.4558 46.7741 76.9312 46.5671C77.4067 46.3601 77.8343 46.0605 78.1884 45.6866C78.5424 45.3127 78.8156 44.8721 78.9912 44.3917C79.1668 43.9112 79.2413 43.4007 79.2101 42.8911Z" fill="white"/>
<path d="M90.5911 46.4596L87.3355 39.8948H87.2689L86.2956 47.9777H84.9656L86.2283 37.7823H87.7149L91.1927 44.847H91.2592L94.737 37.7823H96.2236L97.4864 47.9777H96.1563L95.1814 39.891H95.1149L91.8507 46.4596H90.5911Z" fill="white"/>
<path d="M111.788 37.7823V47.9777H110.458V38.9564H104.081V47.9777H102.751V37.7823H111.788Z" fill="white"/>
<path d="M127.36 47.9777H125.942L124.9 45.6517H119.032L117.991 47.9777H116.572L121.091 37.7823H122.796L127.36 47.9777ZM119.563 44.4776H124.391L121.999 39.1737H121.933L119.563 44.4776Z" fill="white"/>
<path d="M140.76 37.7823V47.9777H139.43V43.5416H133.053V47.9762H131.723V37.7823H133.053V42.369H139.432V37.7823H140.76Z" fill="white"/>
<path d="M147.625 45.8691L153.938 37.7823H155.268V47.9777H153.938V39.891H153.871L147.56 47.9777H146.23V37.7823H147.56V45.8691H147.625Z" fill="white"/>
<path d="M169 37.7823V47.9777H167.67V44.195H163.949L161.132 47.9777H159.587L162.555 43.9777V43.9125C162.149 43.7921 161.772 43.5926 161.447 43.3258C161.082 43.057 160.791 42.7043 160.597 42.2986C160.404 41.893 160.316 41.447 160.34 40.9998C160.34 39.1952 161.757 37.8046 164.503 37.8046H169V37.7823ZM164.482 43.0217H167.671V38.9564H164.482C162.576 38.9564 161.665 39.8257 161.665 40.9998C161.669 42.1517 162.555 43.0217 164.482 43.0217Z" fill="white"/>
<path d="M142.045 7.50009L146.651 13.5435H145.012L141.07 8.36936L138.921 10.478V13.5435H137.591V3.34805H138.921V8.80476H138.988L144.634 3.34805H146.34L142.045 7.50009Z" fill="white"/>
<path d="M61.8634 41.9343L66.4702 47.9777H64.8311L60.8885 42.8036L58.74 44.9123V47.9777H57.4099V37.7823H58.74V43.239H58.8065L64.4532 37.7823H66.1588L61.8634 41.9343Z" fill="white"/>
</svg>
